<svg width="25" height="25" viewBox="0 0 25 25" fill="none" xmlns="http://www.w3.org/2000/svg">
<path d="M3.15576 18.3413V12.3413C3.15576 9.95436 4.10397 7.66517 5.7918 5.97735C7.47963 4.28952 9.76881 3.34131 12.1558 3.34131C14.5427 3.34131 16.8319 4.28952 18.5197 5.97735C20.2075 7.66517 21.1558 9.95436 21.1558 12.3413V18.3413" stroke="#32B0A1" stroke-width="2" stroke-linecap="round" stroke-linejoin="round"/>
<path d="M21.1558 19.3413C21.1558 19.8717 20.945 20.3804 20.57 20.7555C20.1949 21.1306 19.6862 21.3413 19.1558 21.3413H18.1558C17.6253 21.3413 17.1166 21.1306 16.7415 20.7555C16.3665 20.3804 16.1558 19.8717 16.1558 19.3413V16.3413C16.1558 15.8109 16.3665 15.3022 16.7415 14.9271C17.1166 14.552 17.6253 14.3413 18.1558 14.3413H21.1558V19.3413ZM3.15576 19.3413C3.15576 19.8717 3.36648 20.3804 3.74155 20.7555C4.11662 21.1306 4.62533 21.3413 5.15576 21.3413H6.15576C6.68619 21.3413 7.1949 21.1306 7.56998 20.7555C7.94505 20.3804 8.15576 19.8717 8.15576 19.3413V16.3413C8.15576 15.8109 7.94505 15.3022 7.56998 14.9271C7.1949 14.552 6.68619 14.3413 6.15576 14.3413H3.15576V19.3413Z" fill="#32B0A1" fill-opacity="0.2" stroke="#32B0A1" stroke-width="2" stroke-linecap="round" stroke-linejoin="round"/>
</svg>
