<svg width="25" height="25" viewBox="0 0 25 25" fill="none" xmlns="http://www.w3.org/2000/svg">
<path d="M19.7817 3.54395H5.78174C4.67717 3.54395 3.78174 4.43938 3.78174 5.54395V19.5439C3.78174 20.6485 4.67717 21.5439 5.78174 21.5439H19.7817C20.8863 21.5439 21.7817 20.6485 21.7817 19.5439V5.54395C21.7817 4.43938 20.8863 3.54395 19.7817 3.54395Z" stroke="#5486E9" stroke-width="2" stroke-linecap="round" stroke-linejoin="round"/>
<path d="M9.28174 10.5439C10.1102 10.5439 10.7817 9.87237 10.7817 9.04395C10.7817 8.21552 10.1102 7.54395 9.28174 7.54395C8.45331 7.54395 7.78174 8.21552 7.78174 9.04395C7.78174 9.87237 8.45331 10.5439 9.28174 10.5439Z" stroke="#5486E9" stroke-width="2" stroke-linecap="round" stroke-linejoin="round"/>
<path d="M21.7817 15.5439L16.7817 10.5439L5.78174 21.5439" stroke="#5486E9" stroke-width="2" stroke-linecap="round" stroke-linejoin="round"/>
</svg>
