<svg width="25" height="25" viewBox="0 0 25 25" fill="none" xmlns="http://www.w3.org/2000/svg">
<path d="M12.6107 13.434C13.1629 13.434 13.6107 12.9863 13.6107 12.434C13.6107 11.8817 13.1629 11.434 12.6107 11.434C12.0584 11.434 11.6107 11.8817 11.6107 12.434C11.6107 12.9863 12.0584 13.434 12.6107 13.434Z" stroke="black" stroke-opacity="0.45" stroke-width="2" stroke-linecap="round" stroke-linejoin="round"/>
<path d="M19.6107 13.434C20.1629 13.434 20.6107 12.9863 20.6107 12.434C20.6107 11.8817 20.1629 11.434 19.6107 11.434C19.0584 11.434 18.6107 11.8817 18.6107 12.434C18.6107 12.9863 19.0584 13.434 19.6107 13.434Z" stroke="black" stroke-opacity="0.45" stroke-width="2" stroke-linecap="round" stroke-linejoin="round"/>
<path d="M5.61066 13.434C6.16294 13.434 6.61066 12.9863 6.61066 12.434C6.61066 11.8817 6.16294 11.434 5.61066 11.434C5.05837 11.434 4.61066 11.8817 4.61066 12.434C4.61066 12.9863 5.05837 13.434 5.61066 13.434Z" stroke="black" stroke-opacity="0.45" stroke-width="2" stroke-linecap="round" stroke-linejoin="round"/>
</svg>
