<svg width="376" height="479" viewBox="0 0 376 479" fill="none" xmlns="http://www.w3.org/2000/svg">
<path fill-rule="evenodd" clip-rule="evenodd" d="M27.4607 328.975C35.7681 286.194 119.829 310.566 174.938 297.34C230.048 284.114 295.247 222.519 338.397 252.691C381.547 282.864 335.636 355.799 236.668 372.259C137.701 388.718 19.1533 371.756 27.4607 328.975Z" fill="#F8F8F8"/>
<g opacity="0.5">
<path fill-rule="evenodd" clip-rule="evenodd" d="M49.4171 129.164C48.6157 129.964 48.927 132.808 48.9102 133.86C48.8844 135.498 48.9863 137.122 49.1233 138.754C49.215 139.847 49.7324 150.277 51.1719 149.476C51.9835 149.024 51.4747 146.007 51.4732 145.053C51.4699 142.931 51.3817 140.815 51.2403 138.698C51.1087 136.733 51.0262 134.79 51.1019 132.821C51.1203 132.341 51.57 127.007 49.4171 129.164" fill="#89C5CC"/>
<path fill-rule="evenodd" clip-rule="evenodd" d="M84.3156 127.878C77.431 127.933 70.5493 128.273 63.668 128.481C60.3568 128.581 57.0477 128.708 53.74 128.891C52.6129 128.954 50.1955 128.593 49.2564 129.194C47.1719 130.527 50.5337 130.839 51.43 130.806C65.048 130.312 78.6707 129.662 92.3003 129.631C98.9862 129.616 105.669 129.807 112.355 129.764C114.911 129.748 117.742 128.647 118.387 131.622C119.116 134.979 118.279 138.717 118.051 142.09C117.899 144.342 117.953 146.547 118.054 148.798C118.12 150.239 117.95 151.863 118.205 153.278C118.45 154.64 119.429 155.457 120.327 153.931C120.863 153.019 120.597 150.768 120.632 149.712C120.68 148.289 120.635 146.867 120.635 145.444C120.635 141.971 121.125 138.512 121.06 135.04C121.018 132.801 120.9 128.742 118.076 128.204C114.966 127.611 111.143 128.207 107.961 128.171C100.076 128.081 92.2036 127.816 84.3156 127.878" fill="#89C5CC"/>
<path fill-rule="evenodd" clip-rule="evenodd" d="M65.3459 149.6C62.75 149.6 60.1538 149.616 57.558 149.659C55.3318 149.696 51.8315 149.232 49.7595 150.028C48.341 150.573 47.9642 152.157 49.7595 152.579C51.7175 153.039 54.6685 152.287 56.7171 152.251C66.9898 152.069 77.3614 151.833 87.6197 152.482C97.232 153.091 107.03 153.681 116.656 153.039C117.466 152.985 121.597 152.82 119.712 151.272C118.612 150.368 114.155 150.963 112.726 150.919C107.685 150.767 102.639 150.734 97.6003 150.542C92.6269 150.354 87.6755 149.795 82.7005 149.656C76.9205 149.495 71.1278 149.6 65.3459 149.6" fill="#89C5CC"/>
<path fill-rule="evenodd" clip-rule="evenodd" d="M62.7489 134.835C66.7951 135.012 70.7982 140.88 66.7043 143.716C62.8636 146.377 55.6657 143.46 57.8013 138.3C57.4943 139.046 58.1895 137.49 58.1982 137.479C58.6044 137.001 59.3336 136.471 59.8341 136.094C60.407 135.662 61.0035 135.187 61.6942 134.971C62.1477 134.829 62.0765 135.363 62.7489 134.835M60.7781 132.719C58.8844 133.458 58.0201 134.292 56.7187 135.801C55.8182 136.846 54.6703 137.395 54.6805 138.807C54.6826 139.119 55.084 139.463 55.1533 139.764C55.2491 140.179 55.1382 140.712 55.2141 141.154C55.9975 145.713 61.4373 147.25 65.4191 146.39C68.8877 145.64 71.4818 142.31 70.6783 138.69C69.8693 135.045 64.4647 131.277 60.7781 132.719" fill="#89C5CC"/>
<path fill-rule="evenodd" clip-rule="evenodd" d="M59.091 139.083C59.091 140.723 61.6817 140.723 61.6817 139.083C61.6817 137.462 59.091 137.392 59.091 139.083" fill="#89C5CC"/>
<path fill-rule="evenodd" clip-rule="evenodd" d="M62.3322 138.751C62.3322 140.055 64.3907 140.055 64.3907 138.751C64.3907 137.463 62.3322 137.408 62.3322 138.751" fill="#89C5CC"/>
<path fill-rule="evenodd" clip-rule="evenodd" d="M62.9698 141.439C62.3106 141.692 61.4744 141.167 60.9332 141.513C59.9748 142.127 60.9356 142.682 61.4494 142.928C63.7624 144.038 64.174 140.978 62.9698 141.439" fill="#89C5CC"/>
<path fill-rule="evenodd" clip-rule="evenodd" d="M98.2949 137.804C98.2262 137.833 97.9814 137.937 98.2949 137.804ZM88.2225 136.332C86.4913 136.723 85.0296 138.339 83.1486 138.123C81.7072 137.957 80.7313 136.566 79.3083 136.364C77.4879 136.105 72.5337 140.258 75.1384 140.97C76.6581 141.386 77.5011 138.609 78.8437 138.461C79.9057 138.345 81.35 139.647 82.4506 139.833C84.5037 140.179 85.9137 139.048 87.7161 138.318C89.6746 137.526 90.7889 138.239 92.4922 139.12C93.8367 139.816 95.1029 140.268 96.6413 139.981C98.0851 139.712 99.8988 138.228 101.352 138.38C102.776 138.529 103.791 140.015 105.256 140.153C105.859 140.209 106.758 140.415 106.656 139.484C106.575 138.738 105.743 138.864 105.223 138.593C103.884 137.896 102.632 136.661 101.016 136.766C99.8004 136.846 98.6939 137.7 97.5739 138.108C93.9058 139.446 91.8437 135.52 88.2225 136.332" fill="#89C5CC"/>
<path fill-rule="evenodd" clip-rule="evenodd" d="M91.2871 159.955C84.2114 160.02 77.1118 160.125 70.0559 160.692C68.3832 160.827 51.3025 162.439 51.3349 162.556C51.3948 162.77 53.5917 163.099 53.578 163.149C53.4299 162.782 53.0914 162.63 52.5628 162.694C68.7623 162.694 84.9106 161.243 101.131 161.504C105.207 161.57 109.298 161.542 113.371 161.671C114.388 161.703 116.907 162.432 117.706 161.972C119.802 160.767 115.994 160.628 115.364 160.578C107.381 159.939 99.2921 159.875 91.2871 159.955" fill="#69A1AC"/>
<path fill-rule="evenodd" clip-rule="evenodd" d="M49.2376 163.393C48.1798 164.453 49.1539 168.269 49.1955 169.703C49.2558 171.776 49.2062 173.864 49.3881 175.932C49.5957 178.294 49.9179 180.81 50.5376 183.102C50.8789 184.364 52.077 186.371 52.5517 184.077C52.8907 182.438 52.376 180.264 52.1969 178.595C51.9573 176.362 51.8994 174.159 51.8904 171.915C51.8823 169.96 51.8447 167.997 51.6843 166.048C51.6011 165.036 51.0921 161.548 49.2376 163.393" fill="#69A1AC"/>
<path fill-rule="evenodd" clip-rule="evenodd" d="M75.8514 182.823C70.8303 182.909 65.7982 183.028 60.7856 183.341C58.731 183.47 56.6782 183.661 54.6312 183.879C54.2135 183.923 49.5902 184.111 51.6561 185.817C52.5885 186.587 56.4241 185.522 57.691 185.411C59.8217 185.224 61.9519 185.103 64.0888 185.012C69.0399 184.802 74.0062 184.617 78.9623 184.703C88.0136 184.86 97.0066 184.93 106.06 184.728C107.347 184.699 117.424 184.969 117.767 183.63C118.042 182.552 114.439 183.047 113.781 183.066C111.371 183.138 108.96 183.121 106.549 183.109C96.3335 183.057 86.0589 182.65 75.8514 182.823" fill="#69A1AC"/>
<path fill-rule="evenodd" clip-rule="evenodd" d="M116.06 161.603C116.22 166.074 116.981 170.539 117.224 175.024C117.336 177.073 117.467 179.121 117.567 181.172C117.599 181.833 117.333 183.427 118.115 183.808C119.188 184.33 119.332 183.278 119.533 182.567C120.113 180.512 119.721 177.843 119.668 175.733C119.617 173.689 119.614 171.642 119.463 169.602C119.309 167.518 118.889 165.473 118.694 163.397C118.612 162.518 118.9 161.057 117.968 160.512C117.162 160.041 116.025 160.634 116.06 161.603" fill="#69A1AC"/>
<path fill-rule="evenodd" clip-rule="evenodd" d="M66.7066 169.04C66.7257 169.055 66.7446 169.069 66.7635 169.084C66.7446 169.069 66.7255 169.055 66.7066 169.04M62.44 167.716C64.0312 168.17 65.338 168.001 66.858 169.159C68.118 170.119 69.4105 171.525 69.8284 173.077C70.7939 176.665 67.5205 178.632 64.4517 178.67C61.3084 178.71 56.6558 177.981 56.8169 173.952C56.9403 170.856 59.2007 167.836 62.44 167.716M62.5516 165.688C58.4255 165.893 55.0973 170.527 55.133 174.427C55.176 179.154 60.5324 180.372 64.3373 180.405C68.6315 180.442 72.9138 177.477 71.763 172.648C70.841 168.778 66.5195 165.482 62.5516 165.688" fill="#69A1AC"/>
<path fill-rule="evenodd" clip-rule="evenodd" d="M58.4013 172.035C58.4013 173.353 60.484 173.353 60.484 172.035C60.484 170.732 58.4013 170.676 58.4013 172.035" fill="#69A1AC"/>
<path fill-rule="evenodd" clip-rule="evenodd" d="M62.7697 171.456C62.7697 172.785 64.8689 172.785 64.8689 171.456C64.8689 170.143 62.7697 170.087 62.7697 171.456" fill="#69A1AC"/>
<path fill-rule="evenodd" clip-rule="evenodd" d="M60.3613 174.463C59.0057 175.817 63.7678 178.189 64.8909 176.306C65.8134 174.76 63.805 175.273 63.093 175.189C62.3193 175.098 60.9928 173.833 60.3613 174.463" fill="#69A1AC"/>
<path fill-rule="evenodd" clip-rule="evenodd" d="M98.4352 171.483C98.3049 171.538 98.3049 171.538 98.4352 171.483ZM80.5525 169.28C79.1799 169.538 74.6753 171.057 74.6145 172.686C74.5033 175.646 78.915 172.614 79.8729 172.225C82.4753 171.167 83.8427 173.325 86.4569 173.438C88.7274 173.537 90.815 171.594 92.9538 171.824C95.1947 172.065 96.2726 174.449 98.8596 173.183C100.228 172.513 100.194 171.481 98.6573 171.384C97.7287 171.325 97.0908 171.709 96.1226 171.309C94.6086 170.685 93.9988 169.668 92.1869 169.829C90.8198 169.951 89.5841 170.722 88.2496 171.02C85.1938 171.703 83.4988 168.728 80.5525 169.28" fill="#69A1AC"/>
<path fill-rule="evenodd" clip-rule="evenodd" d="M108.978 172.769C108.884 172.808 108.884 172.808 108.978 172.769ZM109.324 171.536C109.34 171.543 109.443 171.686 109.324 171.536ZM107.751 170.595C107.692 170.641 107.692 170.641 107.751 170.595ZM107.786 170.584C108.091 170.766 110.544 172.444 108.762 172.839C107.857 173.039 107.109 171.219 107.786 170.584M106.973 168.726C103.043 170.517 107.272 176.929 110.356 174.324C111.653 173.228 111.824 171.012 110.562 169.87C109.805 169.186 108 168.257 106.973 168.726" fill="#69A1AC"/>
<path fill-rule="evenodd" clip-rule="evenodd" d="M70.0856 193.992C65.1822 193.993 60.2358 193.89 55.339 194.181C54.515 194.23 51.3757 194.073 50.9511 194.935C50.1743 196.51 53.4044 195.728 53.8737 195.681C63.6237 194.705 73.8084 195.266 83.5905 195.545C91.5908 195.772 99.5483 195.913 107.539 196.325C109.64 196.434 111.738 196.554 113.837 196.68C114.521 196.722 116.243 197.175 116.387 196.082C116.521 195.071 114.373 195.299 113.836 195.271C109.57 195.046 105.306 194.811 101.041 194.571C90.7738 193.992 80.3687 193.99 70.0856 193.992" fill="#89C5CC"/>
<path fill-rule="evenodd" clip-rule="evenodd" d="M50.7934 195.744C49.8775 196.654 50.3068 200.131 50.2813 201.28C50.2366 203.29 50.1417 205.298 50.0992 207.307C50.0549 209.407 50.1164 211.516 50.2406 213.613C50.2926 214.494 51.0152 218.749 52.153 216.314C52.6613 215.225 52.1407 212.195 52.1485 210.962C52.1624 208.718 52.2833 206.483 52.395 204.242C52.491 202.316 52.4945 200.388 52.5787 198.461C52.6055 197.847 52.6781 193.854 50.7934 195.744" fill="#89C5CC"/>
<path fill-rule="evenodd" clip-rule="evenodd" d="M117.212 213.695C112.441 214.184 107.592 213.953 102.802 214.314C98.6738 214.625 94.5494 214.753 90.4105 214.84C81.0383 215.038 71.6502 215.231 62.3052 216.012C60.1754 216.19 58.0483 216.379 55.9128 216.474C54.8449 216.522 50.3635 216.036 50.0297 217.162C49.4613 219.079 54.2538 218.32 55.2874 218.29C57.5605 218.225 59.823 218.06 62.0897 217.888C71.6183 217.162 81.1833 216.945 90.7322 216.643C95.9255 216.479 101.083 216.099 106.264 215.753C108.847 215.581 111.437 215.575 114.019 215.408C114.695 215.365 117.087 215.451 117.573 214.907C117.907 214.534 117.992 213.622 117.212 213.695" fill="#89C5CC"/>
<path fill-rule="evenodd" clip-rule="evenodd" d="M115.595 196.07C115.758 200.646 116.017 205.219 116.171 209.795C116.218 211.171 115.802 213.637 116.569 214.851C117.801 216.802 118.762 214.737 118.988 213.521C119.7 209.683 118.935 205.444 118.736 201.583C118.66 200.109 119.118 196.831 118.406 195.512C117.727 194.256 115.534 194.382 115.595 196.07" fill="#89C5CC"/>
<path fill-rule="evenodd" clip-rule="evenodd" d="M107.584 202.588C109.412 203.083 109.679 207.058 107.616 207.352C104.545 207.789 105.888 203.407 107.584 202.588M107.071 201.007C106.513 200.99 105.226 200.836 104.883 201.29C104.595 201.67 104.886 202.471 104.852 202.833C104.731 204.126 103.68 204.873 104.15 206.4C104.469 207.436 105.323 208.409 106.364 208.769C111.859 210.669 111.792 200.052 107.071 201.007" fill="#89C5CC"/>
<path fill-rule="evenodd" clip-rule="evenodd" d="M57.4631 201.72C57.4494 201.737 57.4357 201.755 57.4223 201.772C57.4357 201.755 57.4494 201.737 57.4631 201.72M61.779 199.424C61.7575 199.24 61.736 199.056 61.7145 198.872C64.6936 200.279 67.0642 202.895 66.075 206.406C65.3202 209.085 62.5932 210.035 60.0526 209.373C57.2402 208.641 55.8962 206.323 56.6545 203.476C57.0044 202.163 58.0787 200.398 59.4674 199.976C60.1138 199.78 61.5435 200.28 61.779 199.424M60.037 198.312C59.2834 198.363 58.55 198.677 57.935 199.106C58.5107 198.619 59.278 198.329 60.037 198.312M60.0588 196.582C58.1972 196.639 56.9774 197.766 55.8733 199.119C55.5267 199.544 54.3552 200.67 54.5002 201.243C54.6149 201.695 54.9151 202.357 55.5471 201.853C52.2368 208.45 60.7885 214.077 66.009 209.489C70.8812 205.208 66.0473 196.381 60.0588 196.582" fill="#89C5CC"/>
<path fill-rule="evenodd" clip-rule="evenodd" d="M58.3671 202.711C58.3671 203.589 59.731 203.589 59.731 202.711C59.731 201.832 58.3671 201.832 58.3671 202.711" fill="#89C5CC"/>
<path fill-rule="evenodd" clip-rule="evenodd" d="M60.6949 202.86C60.6949 203.753 62.0808 203.753 62.0808 202.86C62.0808 201.968 60.6949 201.968 60.6949 202.86" fill="#89C5CC"/>
<path fill-rule="evenodd" clip-rule="evenodd" d="M61.7514 205.996C61.1031 206.049 58.7299 205.828 58.3134 206.396C57.6173 207.345 58.7283 207.378 59.274 207.481C59.7655 207.573 61.9021 207.521 62.2032 207.085C62.4693 206.699 62.4071 205.94 61.7514 205.996" fill="#89C5CC"/>
<path fill-rule="evenodd" clip-rule="evenodd" d="M90.3435 203.535C90.2324 203.581 90.2324 203.581 90.3435 203.535ZM81.3768 202.879C79.916 202.987 78.6787 203.827 77.2819 204.162C75.7911 204.52 75.1458 203.862 73.7902 203.431C72.38 202.983 71.3768 203.16 70.2434 204.123C69.6012 204.669 68.1921 205.925 68.5935 206.894C69.5127 209.113 71.5933 205.503 72.5718 205.335C74.0984 205.073 75.4566 206.408 77.2169 206.026C78.8121 205.68 80.2275 204.585 81.8937 204.573C83.2868 204.563 84.5998 205.326 85.9753 205.51C88.075 205.792 89.4538 205.046 91.3948 204.493C93.078 204.013 94.2583 204.646 95.8414 205.178C96.565 205.421 98.9793 206.306 98.5348 204.702C98.4092 204.249 95.2276 203.439 94.7344 203.283C92.9949 202.734 91.8934 202.948 90.2365 203.58C88.8546 204.107 87.6923 204.363 86.2106 204.073C84.5783 203.754 83.0938 202.749 81.3768 202.879" fill="#89C5CC"/>
</g>
<g opacity="0.5">
<path fill-rule="evenodd" clip-rule="evenodd" d="M148.592 129.337C148.828 124.264 149.152 119.199 149.323 114.124C149.407 111.609 149.474 109.093 149.538 106.578C149.552 106.018 149.567 105.458 149.579 104.898C149.621 102.995 149.395 102.839 151.31 102.67C159.853 101.916 168.43 101.666 176.984 100.984C187.3 100.161 197.669 99.5926 208.014 99.338C212.611 99.2246 217.228 98.9898 221.826 99.1327C222.844 99.1643 224.844 98.8993 225.245 99.6912C225.418 100.033 225.055 101.21 225.009 101.605C224.865 102.838 224.73 104.076 224.647 105.315C224.158 112.625 224.45 120.118 225.865 127.317C222.545 125.445 218.35 123.834 214.48 124.154C210.535 124.48 207.583 126.759 204.425 128.857C202.639 130.044 202.037 130.356 200.255 129.206C198.719 128.216 197.266 127.083 195.817 125.971C193.582 124.255 191.471 122.395 189.303 120.596C185.316 117.289 179.824 112.581 174.317 113.967C170.383 114.957 166.751 117.119 163.336 119.235C158.263 122.379 153.671 126.229 148.592 129.337M216.963 96.8801C197.362 96.8801 177.909 98.7802 158.363 99.8081C156.322 99.9154 154.288 100.073 152.254 100.27C150.898 100.401 147.583 99.8511 146.695 101.009C146.102 101.782 146.611 101.898 146.695 102.632C146.8 103.558 146.737 104.654 146.71 105.634C146.645 107.994 146.577 110.354 146.523 112.714C146.321 121.635 146.194 130.553 146.555 139.472C146.634 141.417 147.343 144.11 146.955 146C146.674 147.368 145.736 148.201 147.9 148.454C150.03 148.703 152.634 148.069 154.765 147.867C156.909 147.663 159.052 147.441 161.199 147.264C170.531 146.495 179.953 146.612 189.309 146.356C198.75 146.098 208.194 146.082 217.638 146.076C221.589 146.074 226.105 146.296 229.96 145.209C231.317 144.826 231.536 144.638 231.202 143.292C231.138 143.036 230.728 142.942 230.608 142.481C230.445 141.852 230.529 141.089 230.49 140.435C230.366 138.299 230.322 136.16 230.222 134.023C230.053 130.452 229.438 126.987 228.983 123.452C228.458 119.37 228.484 115.225 228.474 111.117C228.468 108.838 228.526 106.566 228.709 104.293C228.827 102.836 229.544 100.66 229.18 99.3002C228.999 98.6233 228.702 98.0866 227.998 97.7953C227.552 97.6106 227.176 97.7551 226.735 97.7084C226.212 97.6528 225.885 97.5794 225.258 97.4374C222.572 96.8286 219.7 96.8801 216.963 96.8801" fill="#69A1AC"/>
<path fill-rule="evenodd" clip-rule="evenodd" d="M206.116 106.585C206.115 108.005 205.893 110.101 206.548 111.439C207.379 113.136 208.418 112.605 208.693 111.011C208.851 110.097 208.847 107.394 208.553 106.585C208.138 105.439 206.116 104.659 206.116 106.585" fill="#89C5CC"/>
<path fill-rule="evenodd" clip-rule="evenodd" d="M208.499 107.133C207.166 107.18 203.282 106.86 202.379 107.932C200.832 109.772 203.526 110.097 204.683 109.994C206.022 109.875 210.159 110.166 211.055 109.092C212.555 107.296 209.548 107.095 208.499 107.133" fill="#89C5CC"/>
<path fill-rule="evenodd" clip-rule="evenodd" d="M156.747 154.589C162.61 155.608 160.786 164.547 155.238 162.476C153.305 161.755 150.457 159.67 151.526 157.214C152.324 155.379 154.925 154.415 156.747 154.589M154.32 151.81C150.507 152.452 147.9 156.578 149.207 160.177C150.468 163.65 155.252 166.192 158.78 164.945C162.147 163.753 163.828 159.272 162.692 155.994C161.506 152.57 157.641 151.251 154.32 151.81" fill="#89C5CC"/>
<path fill-rule="evenodd" clip-rule="evenodd" d="M189.981 155.635C188.521 155.756 187.26 156.778 185.791 156.959C184.418 157.128 183.28 156.658 181.994 156.283C180.439 155.829 179.014 155.629 177.425 156.033C176.212 156.341 175.014 157.167 173.754 157.267C171.272 157.462 168.389 154.632 166.452 157.833C165.523 159.368 166.872 160.357 168.261 159.641C169.709 158.895 168.998 158.628 170.794 159.069C172.293 159.436 173.504 159.636 175.005 159.121C176.365 158.654 177.558 157.801 179.036 157.705C180.483 157.611 181.742 158.27 183.126 158.555C184.827 158.904 186.332 158.64 187.944 158.106C189.477 157.599 190.088 157.322 191.635 157.774C192.615 158.061 194.755 158.971 195.708 158.237C197.357 156.969 195.15 156.784 194.281 156.604C192.881 156.314 191.433 155.516 189.981 155.635" fill="#89C5CC"/>
<path fill-rule="evenodd" clip-rule="evenodd" d="M223.384 154.783C223.396 154.792 223.408 154.801 223.419 154.81C223.408 154.801 223.396 154.792 223.384 154.783M221.952 154.483C224.083 154.621 226.388 158.503 223.564 158.64C221.576 158.737 219.353 155.338 221.952 154.483M221.653 151.307C214.915 153.188 217.995 162.689 224.495 161.591C227.447 161.093 228.448 157.672 227.472 155.141C227.053 154.053 226.235 153.136 225.259 152.51C224.538 152.049 222.477 151.077 221.653 151.307" fill="#89C5CC"/>
<path fill-rule="evenodd" clip-rule="evenodd" d="M190.216 171.14C196.145 170.936 202.075 170.733 208.011 170.678C211.228 170.648 214.427 170.704 217.639 170.888C219.064 170.97 220.488 171.049 221.914 171.109C222.159 171.12 222.499 171.103 222.874 171.084C223.756 171.041 224.834 170.988 225.341 171.256C228.177 172.756 222.399 172.921 221.697 172.909C220.124 172.882 218.553 172.805 216.982 172.727C215.609 172.659 214.236 172.591 212.862 172.558C204.044 172.341 195.173 172.737 186.341 173.132L186.341 173.132C184.317 173.222 182.294 173.312 180.275 173.395C178.13 173.483 175.987 173.54 173.844 173.597L173.843 173.597C170.779 173.678 167.716 173.76 164.652 173.932C163.482 173.998 162.312 174.067 161.142 174.137C159.466 174.237 157.79 174.336 156.114 174.425C154.802 174.494 153.489 174.561 152.175 174.594C151.938 174.6 151.63 174.633 151.293 174.669L151.293 174.669H151.293C150.478 174.756 149.498 174.86 148.969 174.644C148.331 174.383 147.816 174.019 148.166 173.247C148.463 172.594 149.539 172.673 150.324 172.73C150.538 172.745 150.731 172.759 150.88 172.756C153.388 172.708 155.891 172.567 158.395 172.413C159.311 172.357 160.227 172.3 161.143 172.242C165.91 171.942 170.672 171.643 175.451 171.561C180.375 171.477 185.295 171.308 190.216 171.14ZM221.185 210.166L222.89 210.145C223.77 210.222 224.164 211.146 223.599 211.856C223.166 212.4 221.501 212.425 220.415 212.441C220.114 212.445 219.858 212.449 219.684 212.463C216.85 212.691 214.022 212.793 211.179 212.82C205.193 212.877 199.229 213.134 193.253 213.475C187.135 213.823 181.012 213.955 174.889 214.086H174.889C170.384 214.182 165.879 214.279 161.376 214.462C158.797 214.567 156.218 214.645 153.638 214.713C153.36 214.72 152.991 214.76 152.574 214.805C150.945 214.981 148.577 215.237 148.04 213.943C147.564 212.794 148.226 212.265 149.194 212.025C149.041 211.345 149.069 210.389 149.085 209.841C149.09 209.677 149.094 209.549 149.091 209.477C149.067 208.79 149.05 208.103 149.033 207.417C149.014 206.639 148.995 205.861 148.965 205.083C148.937 204.377 148.912 203.671 148.887 202.964C148.787 200.176 148.687 197.381 148.472 194.604C148.373 193.323 148.216 192.056 148.059 190.791C147.809 188.772 147.559 186.759 147.548 184.698C147.546 184.327 147.527 183.863 147.506 183.34C147.399 180.664 147.23 176.434 148.891 175.146C151.82 173.436 151.241 178.369 150.982 180.571C150.94 180.934 150.906 181.224 150.898 181.396C150.73 185.057 150.958 188.556 151.326 192.194C151.575 194.651 151.43 197.099 151.284 199.552C151.232 200.427 151.18 201.304 151.146 202.181C151.129 202.616 151.114 203.05 151.099 203.483C151.053 204.819 151.007 206.153 150.907 207.486C150.896 207.631 150.892 207.907 150.887 208.261C150.874 209.258 150.853 210.867 150.64 211.843C151.094 211.824 151.535 211.829 151.9 211.833H151.9H151.9C152.132 211.835 152.333 211.837 152.487 211.833C153.186 211.811 153.885 211.791 154.584 211.77C156.649 211.71 158.714 211.649 160.779 211.572C165.654 211.389 170.53 211.327 175.406 211.266H175.406H175.406C181.165 211.194 186.924 211.121 192.681 210.848C202.168 210.397 211.688 210.281 221.185 210.166H221.185L221.185 210.166ZM222.945 174.377C222.94 180.648 223.425 186.747 223.991 192.993C224.342 196.856 224.623 200.734 224.846 204.607C224.857 204.786 224.855 205.086 224.853 205.46V205.461C224.842 207.602 224.818 212.217 226.934 211.113C228.532 210.28 227.918 205.446 227.578 202.772C227.504 202.185 227.442 201.703 227.42 201.389C227.374 200.72 227.328 200.051 227.282 199.382C227.069 196.278 226.857 193.175 226.577 190.074L226.518 189.42C226.193 185.838 225.869 182.259 225.812 178.66C225.807 178.363 225.836 177.948 225.868 177.48V177.48C225.962 176.125 226.086 174.321 225.524 173.602C224.732 172.589 222.947 172.889 222.945 174.377Z" fill="#69A1AC"/>
<path fill-rule="evenodd" clip-rule="evenodd" d="M190.486 189.75C198.06 186.324 205.722 182.857 213.598 180.389C214.168 180.211 214.527 180.798 214.398 181.29C214.265 181.798 213.033 182.231 212.216 182.518C211.971 182.604 211.764 182.677 211.634 182.735C210.534 183.226 209.431 183.711 208.328 184.196C207.199 184.693 206.07 185.19 204.943 185.694C202.601 186.74 200.256 187.782 197.912 188.824C195.401 189.94 192.89 191.056 190.382 192.178C190.287 192.22 190.192 192.263 190.097 192.305C193.507 193.517 196.898 194.783 200.274 196.088C201.428 196.533 202.578 196.988 203.727 197.443C204.378 197.701 205.029 197.958 205.68 198.214C205.892 198.297 206.261 198.41 206.705 198.545C208.151 198.987 210.388 199.67 210.553 200.36C210.822 201.483 207.734 200.396 206.569 199.986C206.414 199.932 206.294 199.889 206.219 199.865C204.5 199.316 202.801 198.704 201.103 198.092L200.868 198.007C199.523 197.522 198.179 197.032 196.836 196.542C194.211 195.585 191.587 194.628 188.948 193.71C188.575 193.58 188.201 193.451 187.828 193.322C183.593 195.224 179.367 197.144 175.154 199.095C172.896 200.141 170.649 201.212 168.409 202.297C167.92 202.533 167.314 202.899 166.657 203.297C165.08 204.25 163.203 205.384 161.912 205.356C161.22 205.341 160.753 205.192 160.681 204.353C160.607 203.487 161.718 203.033 162.516 202.707C162.707 202.628 162.881 202.558 163.016 202.49C165.41 201.293 167.82 200.125 170.236 198.973C175.035 196.684 179.879 194.486 184.74 192.332C184.768 192.32 184.796 192.307 184.824 192.295C182.128 191.383 179.424 190.492 176.715 189.62C176.444 189.533 175.89 189.379 175.161 189.178C171.716 188.224 164.379 186.191 164.706 185.004C165.08 183.647 171.959 186.128 175.005 187.227C175.575 187.433 176.012 187.59 176.245 187.665C179.886 188.825 183.517 190.018 187.129 191.266C188.246 190.764 189.365 190.257 190.486 189.75Z" fill="#89C5CC"/>
<path fill-rule="evenodd" clip-rule="evenodd" d="M158.033 219.573C160.25 219.962 161.814 222.088 161.571 224.316C161.242 227.325 158.243 228.704 155.472 228.312C152.328 227.866 151.667 225.208 153.19 222.651C153.527 222.085 153.915 221.408 154.528 221.11C154.949 220.905 155.486 221.086 155.826 220.921C157.016 220.342 156.3 219.419 158.033 219.573M157.024 217.607C154.319 217.953 149.32 221.083 149.573 224.216C149.793 224.579 150.123 224.727 150.564 224.661C150.458 225.34 150.492 226.011 150.667 226.675C150.924 227.537 151.437 228.244 152.124 228.805C153.539 229.961 155.473 230.245 157.234 230.042C160.524 229.664 163.116 227.416 163.301 223.995C163.481 220.655 160.566 217.16 157.024 217.607" fill="#89C5CC"/>
<path fill-rule="evenodd" clip-rule="evenodd" d="M170.127 221.683C168.913 222.326 166.993 223.314 166.281 224.536C165.529 225.827 166.308 227.238 167.892 226.628C169.15 226.143 169.95 224.604 171.292 224.11C172.476 223.675 172.953 223.897 174.204 224.33C175.494 224.777 176.621 225.209 178.014 225.099C179.766 224.961 181.284 223.946 182.998 223.715C184.442 223.52 185.633 224.082 187.016 224.305C188.62 224.564 189.669 223.957 191.17 223.641C192.191 223.426 193.99 224.301 194.735 223.974C196.409 223.238 194.638 222.338 193.711 222.04C192.15 221.539 191.189 221.981 189.703 222.397C188.091 222.848 187.395 222.509 185.853 222.094C182.735 221.256 180.326 223.283 177.37 222.914C174.633 222.573 172.995 220.164 170.127 221.683" fill="#89C5CC"/>
<path fill-rule="evenodd" clip-rule="evenodd" d="M221.119 220.186C224.12 223 220.749 227.004 217.439 224.755C216.274 223.963 216.255 222.692 217.162 221.554C217.991 220.514 219.813 220.108 221.119 220.186V220.186ZM220.006 217.912C217.201 218.457 214.556 219.744 214.302 222.981C214.054 226.139 217.294 227.605 220.015 227.398C226.124 226.933 225.682 216.814 220.006 217.912V217.912Z" fill="#89C5CC"/>
</g>
<path opacity="0.5" fill-rule="evenodd" clip-rule="evenodd" d="M286.433 113.031C284.19 113.074 278.651 113.89 277.827 116.544C277.202 118.558 279.059 118.116 280.054 117.383C281.401 116.392 282.581 115.799 284.249 115.497C290.604 114.348 296.71 118.469 303.004 118.991C305.388 119.188 308.265 119.317 310.541 118.545C312.162 117.995 312.374 116.796 310.524 116.614C308.952 116.458 307.213 116.947 305.601 116.933C298.933 116.876 293.006 112.906 286.433 113.031" fill="#C1DEE2"/>
<g opacity="0.5">
<path fill-rule="evenodd" clip-rule="evenodd" d="M50.7409 239.049C46.4491 239.097 42.1594 239.255 37.8761 239.526C33.8028 239.785 29.3832 239.589 25.3763 240.378C24.2385 240.602 22.7015 241.639 24.2144 242.78C25.2778 243.582 29.1683 242.659 30.4381 242.581C35.1144 242.294 39.7931 241.95 44.4761 241.784C48.9094 241.627 53.3424 241.572 57.7779 241.528C58.4551 241.521 59.5791 241.304 60.2535 241.501C61.2224 241.783 60.9926 241.86 61.0651 243.09C61.1967 245.319 61.1603 247.555 61.1161 249.786C61.0734 251.944 60.9935 254.102 61.0013 256.262C61.0068 257.802 60.5143 260.864 61.2874 262.202C62.4001 264.128 63.5544 262.036 63.6376 260.756C63.7968 258.308 63.7255 255.831 63.7262 253.38C63.7266 251.079 63.7432 248.779 63.6621 246.479C63.6033 244.818 63.8407 241.919 62.946 240.409C62.0347 238.871 59.8406 239.203 58.2396 239.13C55.7423 239.015 53.2404 239.023 50.7409 239.049" fill="#89C5CC"/>
<path fill-rule="evenodd" clip-rule="evenodd" d="M23.4343 241.825C23.439 246.147 22.939 250.441 22.7989 254.758C22.7347 256.743 22.6043 258.923 23.1065 260.871C23.6133 262.839 25.2233 263.265 25.4087 261.069C25.7843 256.621 25.6922 252.009 25.9846 247.525C26.0878 245.942 26.7596 243.041 26.1324 241.559C25.5802 240.253 23.4319 240.003 23.4343 241.825" fill="#89C5CC"/>
<path fill-rule="evenodd" clip-rule="evenodd" d="M63.6797 260.877C56.2264 261.864 48.4345 261.504 40.928 261.659C37.3266 261.734 33.7259 261.738 30.1241 261.776C28.867 261.789 25.6747 261.311 24.5872 262.017C22.8561 263.142 24.7344 264.01 25.8804 264.035C32.9885 264.191 40.1757 263.864 47.2823 263.631C50.4753 263.526 53.6787 263.475 56.8632 263.204C58.8236 263.036 60.966 262.875 62.8698 262.348C63.2754 262.235 64.1585 262.259 64.2495 261.705C64.3054 261.363 64.2039 260.805 63.6797 260.877" fill="#89C5CC"/>
<path fill-rule="evenodd" clip-rule="evenodd" d="M32.6864 267.16C30.6149 267.172 24.3726 266.21 23.5147 268.23C22.371 270.924 26.8326 270.295 28.0325 270.264C30.7578 270.194 33.4813 270.187 36.2073 270.188C38.882 270.189 41.5566 270.172 44.2309 270.108C45.0056 270.09 46.809 270.411 47.2547 269.478C47.5934 268.769 47.3258 268.21 46.7011 267.835C45.1979 266.931 41.2927 267.455 39.5328 267.374C37.2541 267.269 34.9679 267.16 32.6864 267.16" fill="#89C5CC"/>
<path fill-rule="evenodd" clip-rule="evenodd" d="M57.8875 267.659C56.7036 267.729 54.309 267.241 53.2484 267.783C52.0431 268.399 52.4678 269.363 53.5085 269.787C54.2292 270.08 57.1855 269.926 57.8875 269.586C58.6192 269.232 59.4466 267.563 57.8875 267.659" fill="#89C5CC"/>
<path fill-rule="evenodd" clip-rule="evenodd" d="M70.8663 242.249C69.6019 242.596 69.9855 249.774 69.9529 250.912C69.8636 254.03 69.5131 257.951 70.549 260.954C71.2097 262.868 72.4786 262.608 72.2625 260.593C72.0725 258.824 71.7468 257.076 71.6058 255.295C71.2869 251.267 70.853 246.97 71.1542 242.939C71.2824 243.173 72.4819 245.346 72.7641 245.184C72.6789 245.234 71.3807 242.113 70.8663 242.249" fill="#89C5CC"/>
<path fill-rule="evenodd" clip-rule="evenodd" d="M85.0895 239.605C82.5307 239.643 79.972 239.688 77.4139 239.759C75.3799 239.816 72.1839 239.482 70.3186 240.337C68.0976 241.356 69.1513 243.626 71.2374 243.674C73.0829 243.716 75.0509 243.3 76.9131 243.236C81.9431 243.064 86.982 243.027 92.0143 242.984C96.5654 242.945 101.31 243.43 105.821 242.747C106.49 248.689 104.681 254.655 105.296 260.665C105.392 261.598 105.349 262.916 106.537 263.129C108.036 263.397 108.098 261.912 108.155 260.849C108.317 257.813 108.229 254.774 108.451 251.734C108.657 248.917 109.063 246.038 108.72 243.216C108.299 239.744 106.635 240.023 103.694 239.878C97.4817 239.574 91.3083 239.514 85.0895 239.605" fill="#89C5CC"/>
<path fill-rule="evenodd" clip-rule="evenodd" d="M76.5137 260.703C75.2099 260.736 73.0444 260.334 72.2089 261.585C71.3397 262.885 72.371 264.02 73.6349 264.287C75.131 264.603 77.0818 264.17 78.6346 264.165C80.2517 264.16 81.8692 264.178 83.4862 264.185C90.419 264.212 97.3816 264.317 104.309 264.03C105.277 263.99 108.023 264.315 108.692 263.387C109.287 262.563 108.871 261.825 108.088 261.406C106.804 260.718 104.167 260.98 102.739 260.925C100.975 260.858 99.2095 260.836 97.4449 260.808C90.4797 260.701 83.4782 260.531 76.5137 260.703" fill="#89C5CC"/>
<path fill-rule="evenodd" clip-rule="evenodd" d="M82.3783 266.717C79.7839 266.761 77.0158 266.647 74.4471 267.041C72.1885 267.387 71.9105 269.57 74.3418 269.825C76.576 270.06 79.2848 269.621 81.5299 269.477C82.3273 269.426 83.2546 269.499 83.6368 268.617C84.0358 267.696 83.2731 266.813 82.3783 266.717" fill="#89C5CC"/>
<path fill-rule="evenodd" clip-rule="evenodd" d="M101.992 266.946C100.607 266.981 96.5625 266.385 95.8765 267.967C94.7347 270.6 100.21 269.6 101.261 269.561C102.585 269.512 107.745 270.285 107.746 268.178C107.747 266.111 103.26 266.915 101.992 266.946" fill="#89C5CC"/>
<path fill-rule="evenodd" clip-rule="evenodd" d="M23.2105 280.031C23.2139 284.821 22.9158 289.656 23.3527 294.434C23.5334 296.411 23.5025 300.196 24.6471 301.872C25.4597 303.061 26.5866 302.977 27.0304 301.549C27.3271 300.595 26.8526 298.686 26.7997 297.665C26.7486 296.684 26.6891 295.705 26.6438 294.725C26.5273 292.199 26.5365 289.677 26.5712 287.15C26.601 284.983 27.1228 282.115 26.6308 280.031C26.1721 278.088 23.2105 277.634 23.2105 280.031" fill="#69A1AC"/>
<path fill-rule="evenodd" clip-rule="evenodd" d="M71.3525 275.817C63.0417 276.025 54.7122 275.839 46.4088 276.25C42.3137 276.453 38.2347 276.899 34.1602 277.343C32.1584 277.561 30.1578 277.786 28.1595 278.032C27.5565 278.107 22.5456 278.301 24.4303 280.206C25.2532 281.039 27.872 280.169 28.9082 280.047C30.9146 279.81 32.9249 279.603 34.934 279.391C38.7572 278.986 42.5851 278.603 46.4246 278.391C55.4671 277.89 64.547 278.04 73.5985 277.706C76.047 277.616 78.4882 277.551 80.9376 277.648C81.5808 277.673 86.3072 277.913 84.2551 276.167C83.2847 275.342 79.6262 275.768 78.4135 275.743C76.06 275.694 73.7051 275.758 71.3525 275.817" fill="#69A1AC"/>
<path fill-rule="evenodd" clip-rule="evenodd" d="M82.6824 283.887C82.6413 281.674 82.6002 279.461 82.4994 277.25C82.3934 274.921 85.5656 274.568 86.5064 276.453C87.1836 277.81 87.0645 280.119 86.9625 282.098C86.9213 282.896 86.8829 283.64 86.9006 284.246C86.941 285.636 87.0433 287.074 87.1469 288.53C87.4075 292.195 87.6768 295.981 86.9918 299.44C86.6588 301.122 85.2404 302.005 84.2965 301.089C84.2952 301.091 84.2939 301.093 84.2926 301.095C83.9375 301.618 82.8322 301.617 82.0183 301.616C81.7941 301.616 81.592 301.615 81.4338 301.626C79.2038 301.778 77.0152 302.033 74.805 302.365C70.4012 303.025 66.0357 303.43 61.5843 303.541C58.5639 303.615 55.5392 303.64 52.5138 303.666C46.7204 303.714 40.9241 303.762 35.1491 304.158C33.2021 304.292 31.2846 304.521 29.3695 304.888C29.2065 304.919 29.0254 304.959 28.8327 305.002C27.4087 305.319 25.3473 305.777 25.2064 303.787C25.039 301.425 30.1581 301.116 32.7924 300.956C33.1946 300.932 33.5389 300.911 33.7976 300.887C41.7964 300.143 49.9207 300.258 57.9534 300.372C58.3427 300.378 58.7317 300.383 59.1204 300.389C59.7473 300.398 60.374 300.408 61.0005 300.418C64.4398 300.475 67.875 300.531 71.3132 300.321C72.8778 300.225 74.4628 300.176 76.0509 300.127C78.5843 300.048 81.1254 299.97 83.6032 299.701C83.2295 298.252 83.1642 296.542 83.1026 294.931C83.0786 294.303 83.0552 293.691 83.0143 293.114C82.7967 290.043 82.7396 286.965 82.6824 283.887Z" fill="#69A1AC"/>
<path fill-rule="evenodd" clip-rule="evenodd" d="M89.4087 278.955C88.286 279.108 87.3495 280.069 87.8507 281.288C88.4821 282.822 90.3625 282.223 91.6047 282.126C95.5531 281.816 99.6755 282.434 103.576 281.968C104.641 281.841 106.187 281.26 105.231 279.829C104.512 278.753 101.892 278.942 100.779 278.839C96.9703 278.486 93.2121 278.581 89.4087 278.955" fill="#C1DEE2"/>
<path fill-rule="evenodd" clip-rule="evenodd" d="M96.0725 285.65C94.5412 285.753 90.9767 285.672 90.3314 287.415C89.174 290.54 93.7077 289.439 95.088 289.261C96.6916 289.054 100.472 289.607 101.326 288.052C102.852 285.272 97.4153 285.558 96.0725 285.65" fill="#C1DEE2"/>
<path fill-rule="evenodd" clip-rule="evenodd" d="M92.1345 292.51C91.4082 293.236 91.407 294.534 92.1345 295.261C93.0253 296.15 94.9659 295.966 96.1363 296.031C97.7687 296.122 102.457 296.985 103.268 295.063C104.361 292.47 100.116 292.524 98.7194 292.377C97.1054 292.207 93.4722 291.171 92.1345 292.51" fill="#C1DEE2"/>
<path fill-rule="evenodd" clip-rule="evenodd" d="M34.9111 248.116C34.9111 250.904 39.266 250.904 39.266 248.116C39.266 245.343 34.9111 245.3 34.9111 248.116" fill="#89C5CC"/>
<path fill-rule="evenodd" clip-rule="evenodd" d="M43.1714 248.147C43.1714 251.335 48.1317 251.329 48.1317 248.147C48.1317 244.971 43.1714 244.938 43.1714 248.147" fill="#89C5CC"/>
<path fill-rule="evenodd" clip-rule="evenodd" d="M38.1747 252.386C35.7635 253.051 37.9848 255.095 39.1044 255.562C40.8837 256.304 43.3121 256.85 45.0919 255.738C45.8 255.295 46.3749 254.707 45.856 253.848C45.303 252.933 44.546 253.34 43.7042 253.425C42.6377 253.532 41.7758 253.515 40.746 253.173C39.9774 252.918 39.0129 252.155 38.1747 252.386" fill="#89C5CC"/>
<path fill-rule="evenodd" clip-rule="evenodd" d="M81.9105 248.292C81.9105 250.178 84.8389 250.178 84.8389 248.292C84.8389 246.406 81.9105 246.406 81.9105 248.292" fill="#89C5CC"/>
<path fill-rule="evenodd" clip-rule="evenodd" d="M88.3866 248.576C88.3866 250.671 91.6398 250.672 91.6398 248.576C91.6398 246.481 88.3866 246.481 88.3866 248.576" fill="#89C5CC"/>
<path fill-rule="evenodd" clip-rule="evenodd" d="M88.1454 253.123C86.4364 253.344 81.4939 253.845 81.2173 255.951C80.7907 259.201 86.2064 256.571 87.4424 256.316C89.0167 255.991 90.4226 256.076 91.9943 256.139C92.8571 256.173 94.0048 256.313 93.9144 254.999C93.766 252.84 89.6391 252.932 88.1454 253.123" fill="#89C5CC"/>
<path fill-rule="evenodd" clip-rule="evenodd" d="M45.1789 283.093C43.9403 283.423 42.3199 285.565 43.1722 286.875C44.5695 289.025 45.1858 285.725 45.7706 285.407C46.8347 284.829 47.6985 286.941 48.8106 285.833C50.5653 284.085 46.2837 282.797 45.1789 283.093" fill="#69A1AC"/>
<path fill-rule="evenodd" clip-rule="evenodd" d="M59.3722 281.504C57.9032 281.518 54.8021 283.597 54.5824 285.133C54.452 286.045 55.057 286.922 56.0405 286.934C57.3798 286.951 57.8054 285.209 58.9664 284.845C60.2187 284.452 60.0328 285.357 61.1144 285.826C61.9059 286.169 62.8958 286.025 63.1708 285.052C63.6895 283.216 60.8815 281.475 59.3722 281.504" fill="#69A1AC"/>
<path fill-rule="evenodd" clip-rule="evenodd" d="M48.128 290.296C45.7785 291.673 49.6444 294.624 50.9846 294.994C53.0079 295.55 57.0801 294.511 57.5596 292.039C57.7504 291.056 57.1351 290.165 56.0495 290.341C55.1557 290.486 54.5825 291.607 53.7546 292.009C52.6371 292.551 51.6436 292.514 50.6941 291.698C49.9205 291.033 49.5062 289.493 48.128 290.296" fill="#69A1AC"/>
<path fill-rule="evenodd" clip-rule="evenodd" d="M49.8306 310.64C47.7314 311.088 45.5976 310.787 43.4883 311.208C41.3374 311.638 40.052 312.45 38.0537 311.631C37.9597 311.592 37.866 311.552 37.7722 311.512C36.2255 310.846 34.6045 310.649 32.9855 311.711C32.0275 312.339 29.1191 314.512 29.4697 315.838C30.2293 318.713 33.5019 314.205 34.3364 313.766C35.9277 312.928 37.0187 313.998 38.657 314.3C40.6194 314.662 42.1984 313.625 44.0469 313.212C46.2089 312.729 48.6411 312.561 50.8406 312.302C51.7096 312.2 55.0011 312.887 55.2982 311.806C55.8086 309.948 50.6556 310.465 49.8306 310.64" fill="#C1DEE2"/>
<path fill-rule="evenodd" clip-rule="evenodd" d="M64.9751 316.429C65.112 316.533 65.0022 316.45 64.9751 316.429ZM70.854 310.527C72.6511 310.345 78.4007 309.061 79.5813 310.918C80.3501 312.128 79.1299 316.592 77.9659 317.169C77.0355 317.631 74.8683 317.121 73.8474 317.085C71.9479 317.018 70.0443 316.988 68.1469 316.87C67.5106 316.83 65.4629 316.947 64.9641 316.384C64.375 315.719 64.4012 312.173 64.2626 311.294C65.9148 311.829 69.1264 310.703 70.854 310.527M74.692 308.707C72.3904 308.807 70.0893 308.98 67.805 309.288C66.5316 309.46 65.2415 309.918 64.0654 310.135C63.6863 310.205 63.071 310.011 62.6062 310.235C61.2478 310.891 62.4373 315.329 62.7649 316.514C63.268 318.335 64.5343 318.63 66.3084 318.802C68.6454 319.028 71.0304 318.957 73.3747 318.928C75.6344 318.9 78.6814 319.401 79.9494 317.134C80.769 315.668 81.6481 312.254 80.9476 310.62C80.0259 308.47 76.5847 308.628 74.692 308.707" fill="#C1DEE2"/>
<path fill-rule="evenodd" clip-rule="evenodd" d="M100.464 317.649C100.342 317.807 100.342 317.807 100.464 317.649ZM100.969 317.041C100.931 317.099 100.755 317.285 100.969 317.041ZM95.4803 316.874C96.4948 316.683 97.5097 316.494 98.5254 316.309C97.5636 317.656 96.5507 317.099 94.9077 316.982C95.0986 316.946 95.2894 316.91 95.4803 316.874M90.6403 316.398C90.8975 316.312 91.1545 316.226 91.4117 316.14C91.4039 316.335 91.446 316.519 91.5378 316.689C91.0976 316.642 90.6577 316.591 90.2184 316.537C90.3589 316.49 90.4997 316.444 90.6403 316.398M88.3973 314.742C88.3829 314.388 88.9142 314.631 89.2186 314.607C88.6317 315.124 88.3579 315.169 88.3973 314.742M96.4185 310.735C96.4957 310.636 96.598 310.641 96.7253 310.75C96.5864 310.796 96.0514 311.023 96.4185 310.735M101.621 310.123C101.635 310.123 101.922 310.512 101.621 310.123ZM101.475 309.995C101.55 310.053 101.55 310.053 101.475 309.995ZM100.825 309.92C101.889 310.099 101.808 311.347 100.825 309.92ZM88.3291 309.834C88.1136 310.013 88.1873 309.84 88.3291 309.834ZM92.3974 307.177C90.5916 307.282 87.277 307.176 85.7688 308.138C83.8008 309.394 84.8363 313.717 85.0125 315.612C85.2728 318.414 86.5908 319.211 89.229 319.505C92.3773 319.856 95.6121 319.922 98.7767 319.839C101.627 319.764 103.25 318.783 103.772 315.783C103.932 314.864 104.338 313.444 104.325 312.565C104.316 311.955 104.012 311.677 103.897 311.158C103.243 308.205 102.148 307.854 99.1211 307.726C96.8933 307.631 94.5834 307.063 92.3974 307.177" fill="#89C5CC"/>
</g>
<g opacity="0.5">
<path fill-rule="evenodd" clip-rule="evenodd" d="M188.053 239.33C192.644 239.428 197.853 241.968 197.127 247.351C196.595 251.295 193.181 254.496 189.227 254.772C184.977 255.069 180.484 251.807 179.907 247.48C179.257 242.613 183.564 239.233 188.053 239.33M185.801 237.138C183.94 237.416 182.161 238.394 180.522 239.269C179.897 239.604 176.725 241.642 179.213 242.148C173.219 251.815 187.325 260.793 195.255 254.511C198.817 251.69 200.692 246.341 198.39 242.154C196.009 237.824 190.362 236.453 185.801 237.138" fill="#89C5CC"/>
<path fill-rule="evenodd" clip-rule="evenodd" d="M184.704 245.366C184.704 247.172 187.506 247.172 187.506 245.366C187.506 243.561 184.704 243.561 184.704 245.366" fill="#89C5CC"/>
<path fill-rule="evenodd" clip-rule="evenodd" d="M189.9 245.655C189.9 247.613 192.938 247.613 192.938 245.655C192.938 243.698 189.9 243.698 189.9 245.655" fill="#89C5CC"/>
<path fill-rule="evenodd" clip-rule="evenodd" d="M186.394 249.526C185.985 251.011 190.647 251.773 190.802 250.054C190.876 249.233 186.678 248.49 186.394 249.526" fill="#89C5CC"/>
<path fill-rule="evenodd" clip-rule="evenodd" d="M200.059 248.608C205.424 247.965 210.954 248.262 216.345 248.417C217.694 248.456 219.042 248.493 220.392 248.516C221.249 248.53 223.102 248.942 223.85 248.54C226.916 246.896 220.902 246.102 220.051 246.026C214.689 245.585 206.415 245.427 201.038 245.636C199.447 245.697 199.103 248.723 200.059 248.608" fill="#89C5CC"/>
<path fill-rule="evenodd" clip-rule="evenodd" d="M224.198 275.275C224.244 269.655 224.445 263.996 224.878 258.392C225.053 256.108 225.265 253.827 225.44 251.543C225.522 250.467 225.904 248.96 225.272 248.016C224.62 247.044 223.191 246.841 222.329 247.704C221.298 249.038 221.598 251.279 221.469 252.893C221.272 255.376 221.034 257.857 220.916 260.345C220.687 265.161 220.633 270.061 221.02 274.87C221.203 277.139 221.599 279.353 222.126 281.566C222.367 282.573 224.276 287.061 223.874 287.68C223.252 288.64 218.654 288.277 217.657 288.304C215.098 288.372 212.537 288.417 209.977 288.466C207.786 288.508 205.594 288.538 203.402 288.557C202.532 288.565 197.418 288.41 198.552 289.7C185.867 290.584 172.939 289.109 160.331 288.602C159.694 288.577 158.652 288.396 157.691 288.344C157.575 287.879 157.481 287.464 157.457 287.176C157.292 285.149 157.248 283.116 157.069 281.09C156.74 277.384 156.103 273.715 155.723 270.015C155.345 266.319 155.383 262.611 155.163 258.906C155.125 258.271 155.036 253.071 153.723 251.807C154.346 252.043 155.349 252.074 155.927 252.027C160.604 251.65 165.247 250.837 169.883 250.14C171.21 249.94 174.22 250.081 175.321 249.418C176.273 248.844 176.65 246.832 174.993 246.994C170.37 247.49 165.771 248.258 161.184 249.015C159.957 249.217 158.733 249.434 157.509 249.655C156.692 249.803 154.535 249.791 153.901 250.284C153.131 250.882 153.05 251.289 153.311 251.56C152.948 251.46 152.513 251.617 151.991 252.139C151.004 253.424 151.932 256.588 152.05 258.094C152.191 259.901 152.261 261.712 152.343 263.522C152.502 267.025 152.869 270.48 153.432 273.941C154.064 277.818 154.601 281.711 155.234 285.587C155.399 286.596 155.614 287.58 155.888 288.555C154.182 289.428 155.342 290.816 156.695 291.062C156.705 291.064 156.715 291.065 156.725 291.067C157.147 292.095 157.736 293.048 158.197 291.67C158.232 291.564 158.249 291.434 158.253 291.288C161.748 291.683 165.589 291.438 169.029 291.578C176.481 291.883 183.98 292.34 191.44 292.108C194.393 292.017 197.355 291.754 200.284 291.36C201.999 291.129 203.722 290.854 205.41 290.471C205.531 290.444 205.715 290.415 205.927 290.38C205.962 290.379 205.997 290.378 206.03 290.378C208.615 290.339 211.198 290.27 213.781 290.162C215.949 290.072 218.127 290.026 220.288 289.821C221.631 289.694 224.468 289.718 225.292 288.368C226.041 287.14 224.788 283.978 224.61 282.599C224.298 280.172 224.178 277.721 224.198 275.275" fill="#C1DEE2"/>
<path fill-rule="evenodd" clip-rule="evenodd" d="M197.999 259.046C195.933 259.223 194.023 260.193 191.938 260.205C190.189 260.215 188.466 259.692 186.706 259.77C184.643 259.86 183.507 261.194 181.699 261.641C180.26 261.996 179.353 260.894 178.087 260.407C176.489 259.791 175.308 260.109 173.938 261.04C172.932 261.724 170.584 263.259 170.602 264.643C170.656 268.833 175.545 263.044 176.531 262.974C177.841 262.881 179.304 264.374 180.697 264.459C182.539 264.572 183.721 263.384 185.417 262.951C187.132 262.514 188.987 263.05 190.706 263.216C192.669 263.406 194.386 262.969 196.284 262.5C198.124 262.046 199.691 262.07 201.561 262.452C202.822 262.709 205.965 264.205 206.517 262.281C207.269 259.662 199.443 258.923 197.999 259.046" fill="#89C5CC"/>
<path fill-rule="evenodd" clip-rule="evenodd" d="M198.628 267.039C194.396 267.45 190.137 267.81 185.885 267.925C184.044 267.975 176.964 267.186 177.592 269.526C178.13 271.533 187.764 270.269 189.726 270.117C191.893 269.948 194.056 269.713 196.211 269.44C196.975 269.344 198.82 269.444 199.359 268.803C199.873 268.192 199.619 266.94 198.628 267.039" fill="#89C5CC"/>
<path fill-rule="evenodd" clip-rule="evenodd" d="M169.428 277.696C169.332 277.736 169.332 277.736 169.428 277.696ZM170.322 277.684C171.377 277.651 171.151 277.094 172.203 277.384C172.689 277.518 172.739 277.319 173.115 277.784C173.849 278.689 173.158 280.66 172.434 281.39C169.753 284.091 166.537 277.804 170.322 277.684M170.322 275.034C162.984 275.28 166.054 286.615 172.44 284.301C175.078 283.346 176.736 279.041 175.184 276.622C174.43 275.445 173.468 275.235 172.203 275.154C171.91 275.135 171.54 275.562 171.357 275.542C170.922 275.496 170.962 275.01 170.322 275.034" fill="#89C5CC"/>
<path fill-rule="evenodd" clip-rule="evenodd" d="M187.869 278.084C187.738 278.044 190.186 278.756 189.918 278.477C190.49 279.071 189.721 280.477 189.075 280.722C187.509 281.317 186.63 278.882 187.869 278.084M188.955 275.011C186.657 275.337 184.884 276.293 184.57 278.848C184.28 281.206 185.874 283.595 188.387 283.641C193.865 283.741 194.032 274.302 188.955 275.011" fill="#89C5CC"/>
<path fill-rule="evenodd" clip-rule="evenodd" d="M213.965 278.188C214.286 282.375 209.943 278.542 213.965 278.188ZM212.101 273.707C211.721 274.357 212.045 275.046 212.618 275.423C207.496 276.505 208.656 284.213 213.868 283.075C216.519 282.495 217.006 279.708 216.611 277.407C216.423 276.313 213.696 270.98 212.101 273.707" fill="#89C5CC"/>
</g>
<path opacity="0.5" fill-rule="evenodd" clip-rule="evenodd" d="M224.219 277.729C222.692 278.001 219.082 279.687 219.114 281.498C219.163 284.325 222.23 281.237 222.913 280.822C226.579 278.591 231.327 281.482 235.144 282.097C236.894 282.379 240.318 282.9 241.864 281.727C244.613 279.642 238.255 280.164 237.445 280.08C233.044 279.625 228.666 276.935 224.219 277.729" fill="#C1DEE2"/>
<g opacity="0.5">
<path fill-rule="evenodd" clip-rule="evenodd" d="M296.34 257.851C296.339 260.744 296.193 263.697 296.726 266.555C296.887 267.42 297.015 269.077 297.928 269.527C298.844 269.977 299.733 269.471 299.961 268.531C300.227 267.437 299.644 265.801 299.585 264.653C299.504 263.084 299.499 261.514 299.498 259.944C299.497 258.81 299.87 256.986 298.532 256.402C297.536 255.968 296.34 256.775 296.34 257.851" fill="#C1DEE2"/>
<path fill-rule="evenodd" clip-rule="evenodd" d="M342.073 253.276C332.489 254.238 322.767 254.438 313.148 254.939C308.701 255.171 303.328 254.875 299.139 256.597C298.361 256.916 295.575 258.695 297.837 259.419C298.542 259.645 299.258 258.886 299.837 258.631C300.801 258.208 301.917 258.077 302.945 257.912C311.686 256.508 320.828 256.753 329.658 256.097C331.921 255.929 334.184 255.756 336.442 255.533C338.056 255.375 341.446 254.212 342.935 254.807C345.479 255.823 345.419 262.425 345.469 264.696C345.495 265.87 344.356 270.086 346.621 269.659C348.435 269.316 347.778 264.937 347.637 263.739C347.266 260.599 346.634 252.814 342.073 253.276" fill="#C1DEE2"/>
<path fill-rule="evenodd" clip-rule="evenodd" d="M345.608 269.506C337.283 270.258 328.766 269.52 320.407 269.816C316.025 269.971 311.648 270.218 307.266 270.363C305.371 270.426 303.473 270.428 301.577 270.442C300.67 270.448 296.543 270.998 299.096 272.796C300.227 273.592 303.83 272.951 305.127 272.935C307.075 272.912 309.022 272.831 310.969 272.755C315.479 272.579 319.986 272.334 324.499 272.212C328.815 272.095 333.134 272.07 337.45 271.953C339.597 271.895 341.774 271.829 343.903 271.516C344.383 271.445 345.943 271.389 346.277 270.853C346.592 270.347 346.37 269.433 345.608 269.506" fill="#89C5CC"/>
<path fill-rule="evenodd" clip-rule="evenodd" d="M304.692 263.256C304.647 263.361 304.647 263.361 304.692 263.256ZM308.297 262.16C308.428 262.215 308.428 262.215 308.297 262.16ZM308.128 262.13C310.071 264.11 307.083 266.474 305.263 264.541C303.332 262.49 306.877 262.136 308.128 262.13M306.068 259.134C299.376 260.325 301.745 269.243 307.996 267.954C310.739 267.389 312.309 264.624 311.364 261.969C310.995 260.932 310.191 259.793 309.071 259.466C308.513 259.303 308.019 259.559 307.487 259.499C306.979 259.442 306.698 259.02 306.068 259.134" fill="#C1DEE2"/>
<path fill-rule="evenodd" clip-rule="evenodd" d="M331.679 261.644C327.644 261.657 323.607 261.828 319.573 261.905C318.335 261.928 315.154 261.374 315.149 263.325C315.144 265.41 318.687 264.64 319.866 264.612C323.868 264.516 327.881 264.341 331.867 263.96C332.874 263.864 336.36 264.03 336.356 262.66C336.352 261.21 332.492 261.644 331.679 261.644" fill="#C1DEE2"/>
<path fill-rule="evenodd" clip-rule="evenodd" d="M341.317 275.251C331.337 275.519 321.371 275.612 311.399 276.123C307.669 276.314 303.944 276.456 300.208 276.456C299.489 276.456 298.04 276.177 297.363 276.63C295.525 277.859 297.618 278.914 298.815 278.98C307.008 279.435 315.319 278.304 323.506 278.048C328.3 277.899 333.094 277.854 337.884 277.611C339.191 277.544 340.498 277.467 341.803 277.366C342.553 277.307 344.538 277.467 345.144 277.028C347.792 275.111 342.21 275.227 341.317 275.251" fill="#89C5CC"/>
<path fill-rule="evenodd" clip-rule="evenodd" d="M295.526 280.131C295.432 282.718 295.422 285.261 295.761 287.834C295.894 288.847 295.955 289.996 297.142 290.253C298.22 290.487 298.766 289.672 298.99 288.768C299.535 286.56 299.055 283.383 299.049 281.09C299.046 279.956 299.045 278.687 297.644 278.431C296.575 278.235 295.566 279.008 295.526 280.131" fill="#89C5CC"/>
<path fill-rule="evenodd" clip-rule="evenodd" d="M351.896 286.369C335.74 287.22 319.606 287.964 303.438 288.647C302.177 288.7 292.383 288.594 295.807 292.009C296.865 293.064 299.589 292.35 300.957 292.283C303.013 292.182 305.069 292.105 307.125 292C315.274 291.585 323.445 291.473 331.589 291.008C336.07 290.752 340.542 290.351 345 289.829C347.12 289.581 349.752 289.606 351.738 288.775C352.76 288.348 353.863 286.265 351.896 286.369" fill="#89C5CC"/>
<path fill-rule="evenodd" clip-rule="evenodd" d="M342.607 273.243C341.378 274.466 342.01 276.88 342.103 278.393C342.23 280.474 342.385 282.557 342.644 284.627C342.813 285.971 342.724 288.064 343.441 289.225C344.281 290.585 346.131 290.435 346.89 289.121C347.562 287.959 347.222 285.514 347.205 284.226C347.181 282.445 347.07 280.661 346.964 278.884C346.876 277.398 347.212 275.018 346.395 273.747C345.565 272.455 343.758 272.098 342.607 273.243" fill="#89C5CC"/>
<path fill-rule="evenodd" clip-rule="evenodd" d="M305.679 282.738C305.535 282.849 305.535 282.849 305.679 282.738ZM308.549 282.379C311.226 282.918 306.897 286.044 305.528 283.898C305.315 283.563 305.204 283.151 305.547 282.86C305.86 282.593 306.057 283.064 306.352 282.938C306.862 282.72 308.005 282.359 308.549 282.379M308.18 279.813C306.352 279.957 303.838 280.07 302.933 281.903C301.718 284.364 303.797 286.774 306.202 287.149C308.516 287.509 311.971 286.227 312.157 283.528C312.306 281.352 310.236 279.646 308.18 279.813" fill="#89C5CC"/>
<path fill-rule="evenodd" clip-rule="evenodd" d="M323.441 281.114C321.549 281.145 317.829 280.585 316.18 281.507C314.549 282.42 315.276 284.045 316.765 284.434C317.748 284.691 319.356 284.277 320.38 284.235C321.728 284.18 323.076 284.168 324.424 284.15C326.691 284.119 328.958 284.145 331.225 284.145C333.541 284.145 335.896 284.208 338.208 284.038C341.133 283.823 341.054 281.632 338.194 281.359C333.334 280.893 328.316 281.037 323.441 281.114" fill="#89C5CC"/>
<path fill-rule="evenodd" clip-rule="evenodd" d="M318.607 305.644C318.607 306.685 319.531 305.644 319.524 305.644C319.531 305.644 318.607 304.604 318.607 305.644" fill="#89C5CC"/>
<path fill-rule="evenodd" clip-rule="evenodd" d="M297.722 297.267C297.781 300.292 297.82 303.32 297.949 306.342C297.99 307.298 297.717 309.164 298.875 309.652C300.165 310.194 300.565 308.842 300.714 307.926C301.184 305.024 300.723 301.71 300.678 298.774C300.663 297.788 300.876 296.415 299.756 295.924C298.843 295.523 297.703 296.267 297.722 297.267" fill="#89C5CC"/>
<path fill-rule="evenodd" clip-rule="evenodd" d="M347.464 297.315C347.54 297.495 347.54 297.495 347.464 297.315ZM347.573 297.284C347.634 297.31 347.884 297.415 347.573 297.284ZM323.137 294.839C318.493 294.912 313.847 294.967 309.206 295.166C307.225 295.251 305.222 295.32 303.248 295.506C301.85 295.639 298.378 295.694 297.471 296.836C295.6 299.194 299.568 298.551 300.422 298.359C301.978 298.011 303.565 297.899 305.154 297.815C308.602 297.633 312.051 297.536 315.503 297.467C324.864 297.278 334.232 297.307 343.595 297.265C344.501 297.261 346.14 296.896 346.977 297.263C347.816 297.63 347.768 298.534 347.855 299.583C347.971 300.979 347.051 303.639 347.752 304.813C348.84 306.634 350.423 305.088 350.665 303.76C350.999 301.925 350.469 299.722 349.95 297.969C349.219 295.494 348.203 295.396 345.81 295.203C343.014 294.977 340.228 294.84 337.422 294.814C332.662 294.77 327.897 294.765 323.137 294.839" fill="#89C5CC"/>
<path fill-rule="evenodd" clip-rule="evenodd" d="M341.503 307.343C331.432 308.513 321.073 307.824 310.948 307.865C308.485 307.875 306.021 307.895 303.561 308.014C302.262 308.077 299.182 307.719 298.292 308.721C296.416 310.834 299.795 311.141 301.029 311.054C303.524 310.876 306.025 310.795 308.526 310.776C317.336 310.708 326.196 311.119 334.998 310.684C338.686 310.502 342.292 309.872 345.911 309.167C346.713 309.01 352.203 307.967 349.073 306.716C347.223 305.977 343.447 307.116 341.503 307.343" fill="#89C5CC"/>
<path fill-rule="evenodd" clip-rule="evenodd" d="M312.096 303.475C312.026 303.565 312.026 303.565 312.096 303.475ZM312.028 303.46C312.005 303.524 311.931 303.683 312.028 303.46ZM311.393 302.64C311.408 302.659 311.468 302.735 311.393 302.64ZM311.369 302.634C311.611 302.924 311.775 303.246 311.859 303.603C309.772 304.168 308.968 302.48 311.369 302.634M311.237 302.555C311.237 302.555 311.53 302.678 311.237 302.555ZM307.809 300.04C306.458 301.722 305.343 303.682 307.027 305.603C308.533 307.32 311.562 307.542 313.473 306.395C315.441 305.214 315.271 302.726 313.898 301.103C313.014 300.057 312.297 300.086 311.015 299.916C310.141 299.8 308.55 299.121 307.809 300.04" fill="#89C5CC"/>
<path fill-rule="evenodd" clip-rule="evenodd" d="M321.77 303.153C321.77 305.392 331.44 304.428 333.16 304.426C334.601 304.424 343.315 305.219 342.69 302.914C342.176 301.02 333.593 301.962 331.765 301.959C330.185 301.957 321.77 300.872 321.77 303.153" fill="#89C5CC"/>
</g>
<g opacity="0.5">
<path fill-rule="evenodd" clip-rule="evenodd" d="M195.525 324.136C200.368 324.839 205.406 327.116 205.364 332.754C205.328 337.493 201.353 342.538 196.249 342.254C191.655 342 187.33 336.976 186.754 332.672C186.456 330.441 187.014 328.04 188.326 326.205C190.045 323.801 192.773 323.805 195.525 324.136M193.238 321.072C189.735 321.091 187.172 322.358 185.005 325.032C184.227 325.991 183.323 327.024 182.731 328.11C182.178 329.125 182.275 331.705 184.172 330.496C183.705 335.491 186.625 340.34 190.822 342.9C195.384 345.682 200.541 345.14 204.338 341.239C207.813 337.669 209.037 331.639 206.494 327.223C203.952 322.81 198.064 321.024 193.238 321.072" fill="#89C5CC"/>
<path fill-rule="evenodd" clip-rule="evenodd" d="M203.741 319.733C201.499 321.376 199.451 323.541 197.75 325.736C196.088 327.882 194.989 330.561 192.992 332.432C191.984 331.333 190.802 328.367 188.791 329.544C187.121 330.52 188.196 332.2 189.009 333.303C191.109 336.15 193.44 337.296 196.133 334.483C198.578 331.928 199.967 328.519 202.253 325.817C203.256 324.632 204.805 323.455 205.604 322.146C206.328 320.96 205.433 318.49 203.741 319.733" fill="#89C5CC"/>
</g>
<g opacity="0.5">
<path fill-rule="evenodd" clip-rule="evenodd" d="M288.489 141.496C288.492 141.72 288.495 141.93 288.5 142.124C288.605 146.355 288.544 150.803 288.2 155.023C288.082 156.481 287.022 158.328 285.812 156.319C285.28 155.436 285.355 153.622 285.41 152.287C285.424 151.93 285.438 151.606 285.438 151.345C285.436 149.856 285.515 148.352 285.593 146.844C285.746 143.895 285.901 140.931 285.464 138.036C285.455 137.977 285.447 137.921 285.439 137.866C285.249 136.593 285.236 136.505 283.836 136.534C283.252 136.546 282.668 136.562 282.085 136.578C281.511 136.593 280.936 136.609 280.362 136.621C279.792 136.633 279.222 136.644 278.651 136.655C276.863 136.689 275.075 136.723 273.288 136.789C272.989 136.8 272.433 136.87 271.73 136.958C270.326 137.134 268.339 137.383 266.667 137.382C266.667 137.389 266.668 137.396 266.669 137.403C266.669 137.416 266.67 137.429 266.671 137.442C266.69 138.365 266.452 139.396 266.213 140.431C266.013 141.298 265.812 142.168 265.761 142.982C265.638 144.917 265.637 146.873 265.635 148.829C265.634 151.211 265.632 153.593 265.411 155.937C265.401 156.052 265.394 156.173 265.388 156.295C265.387 156.311 265.386 156.327 265.385 156.344C265.461 156.332 265.534 156.324 265.605 156.319C266.811 156.243 268.026 156.236 269.239 156.229C269.908 156.226 270.577 156.222 271.243 156.207C272.439 156.179 273.65 156.18 274.866 156.181C277.549 156.184 280.256 156.187 282.881 155.878C283.656 155.778 283.927 156.772 283.58 157.288C283.268 157.749 282.411 157.824 281.783 157.878C281.624 157.892 281.479 157.905 281.362 157.922C279.669 158.173 277.953 158.26 276.245 158.336C274.451 158.416 272.656 158.475 270.861 158.525C270.434 158.537 269.863 158.594 269.231 158.658C267.562 158.827 265.46 159.04 264.417 158.568C263.296 158.06 263.322 157.497 263.779 157.061C263.579 156.62 263.547 155.975 263.522 155.471C263.513 155.278 263.505 155.106 263.488 154.974C263.239 152.966 263.089 150.983 263.086 148.958C263.079 144.991 263.087 140.871 264.184 137.032C263.745 136.839 263.479 136.556 263.481 136.147C263.486 134.087 269.897 134.191 272.945 134.241C273.49 134.25 273.928 134.257 274.202 134.25C276.422 134.192 278.642 134.185 280.863 134.197C281.332 134.199 281.855 134.168 282.396 134.137C283.547 134.069 284.783 133.996 285.777 134.227C288.388 134.833 288.451 138.992 288.489 141.496Z" fill="#89C5CC"/>
<path fill-rule="evenodd" clip-rule="evenodd" d="M304.822 134.679C307.246 134.55 309.672 134.521 312.1 134.512C314.67 134.499 317.244 134.545 319.813 134.624L319.873 134.626C321.011 134.66 327.339 134.85 324.432 136.427C324.262 136.519 324.071 136.596 323.863 136.66C323.986 137.39 324.001 138.144 323.981 138.507C323.906 139.884 323.857 141.263 323.807 142.641L323.807 142.641L323.807 142.642C323.773 143.576 323.74 144.51 323.698 145.444C323.584 148.024 323.475 150.604 323.386 153.186C323.375 153.502 323.392 153.917 323.411 154.379V154.379C323.473 155.906 323.555 157.952 322.726 158.709C321.998 159.373 321.501 159.24 321.166 158.788C319.083 159.393 314.806 159.197 312.655 159.098C312.137 159.074 311.742 159.056 311.531 159.056C311.154 159.056 310.453 159.103 309.569 159.163C305.886 159.41 299.011 159.872 298.997 158.056C298.995 157.881 299.052 157.725 299.159 157.584C298.867 157.287 298.605 156.85 298.436 156.304C297.831 154.346 297.774 152.233 297.729 150.202C297.666 147.335 297.665 144.464 297.664 141.594C297.664 140.12 297.664 138.646 297.655 137.173C297.261 136.645 297.495 136.04 297.986 135.618C299.032 134.72 301.628 134.709 303.506 134.702C304.011 134.7 304.464 134.698 304.822 134.679ZM300.876 156.788C303.213 156.289 307.151 156.45 309.26 156.536C309.813 156.558 310.24 156.576 310.48 156.575C312.635 156.566 314.79 156.596 316.943 156.682C317.166 156.691 317.496 156.683 317.885 156.673C318.667 156.654 319.686 156.628 320.552 156.724C320.54 156.606 320.532 156.499 320.528 156.407C320.431 154.49 320.501 152.557 320.57 150.635L320.57 150.635C320.585 150.226 320.6 149.818 320.613 149.411C320.659 147.974 320.721 146.538 320.782 145.101L320.782 145.101C320.821 144.196 320.859 143.292 320.894 142.387C320.909 141.99 320.887 141.451 320.861 140.844C320.809 139.61 320.745 138.097 320.966 136.935C320.169 136.92 319.352 136.864 318.603 136.812L318.603 136.812C317.881 136.762 317.222 136.716 316.704 136.716C316.047 136.716 315.39 136.714 314.733 136.712H314.733H314.733C312.912 136.706 311.092 136.701 309.272 136.737L308.753 136.747C306.246 136.795 303.719 136.844 301.233 137.174C301.087 137.194 300.912 137.231 300.719 137.276C300.991 138.415 300.858 140.021 300.741 141.426C300.684 142.109 300.631 142.745 300.631 143.258C300.627 146.445 300.711 149.619 300.795 152.791L300.795 152.791L300.795 152.791C300.827 153.99 300.859 155.19 300.886 156.389C300.889 156.532 300.886 156.665 300.876 156.788Z" fill="#89C5CC"/>
<path fill-rule="evenodd" clip-rule="evenodd" d="M274.279 158.433C272.686 159.364 273.545 163.087 274.097 164.375C275.005 166.492 276.846 168.149 278.833 169.248C282.849 171.469 288.637 170.879 291.674 174.731C291.705 174.771 292.755 175.81 292.994 174.464C293.19 173.359 291.231 171.673 290.471 171.119C288.312 169.545 285.542 169.037 283.044 168.251C280.38 167.412 277.457 165.865 276.34 163.119C275.944 162.146 276.698 157.013 274.279 158.433" fill="#C1DEE2"/>
<path fill-rule="evenodd" clip-rule="evenodd" d="M310.703 160.223C309.243 160.625 310.209 162.635 310.207 163.641C310.204 164.896 309.803 166.209 309.029 167.211C307.068 169.75 303.227 170.131 300.347 170.859C298.257 171.388 293.254 172.523 293.058 175.351C292.84 178.508 297.256 174.666 297.629 174.508C301.757 172.994 307.097 172.701 310.283 169.368C311.598 167.993 312.376 166.156 312.499 164.261C312.569 163.194 312.581 159.71 310.703 160.223" fill="#C1DEE2"/>
<path fill-rule="evenodd" clip-rule="evenodd" d="M280.534 188.232C280.5 182.39 286.092 178.856 291.148 177.526C297.225 175.925 302.886 180.183 303.602 186.309C304.358 192.773 299.486 197.977 293.061 198.263C287.409 198.514 280.57 194.467 280.534 188.232ZM294.11 180.335C294.438 180.782 294.735 181.495 294.073 181.884C293.436 182.255 293.118 181.809 292.797 181.359C292.595 181.076 292.392 180.791 292.107 180.71C291.368 180.502 290.181 181.279 289.566 181.732C289.316 181.916 288.96 182.312 288.545 182.775C287.222 184.248 285.291 186.399 284.224 184.548C279.967 191.899 290.58 197.401 296.615 194.619C303.243 191.563 301.953 180.394 294.11 180.335Z" fill="#89C5CC"/>
<path fill-rule="evenodd" clip-rule="evenodd" d="M288.547 186.276C288.547 187.617 290.665 187.617 290.665 186.276C290.665 184.951 288.547 184.894 288.547 186.276" fill="#89C5CC"/>
<path fill-rule="evenodd" clip-rule="evenodd" d="M292.273 186.025C292.273 187.667 294.868 187.667 294.868 186.025C294.868 184.401 292.273 184.331 292.273 186.025" fill="#89C5CC"/>
<path fill-rule="evenodd" clip-rule="evenodd" d="M289.606 189.853C287.484 191.101 293.554 193.581 293.793 191.047C293.897 189.953 292.837 190.248 292.131 190.168C291.456 190.09 290.247 189.48 289.606 189.853" fill="#89C5CC"/>
<path fill-rule="evenodd" clip-rule="evenodd" d="M288.686 198.71C288.778 201.898 288.734 205.085 289.339 208.229C289.454 208.827 289.533 210.993 290.005 211.436C291.166 212.528 291.186 210.436 291.231 209.634C291.392 206.763 291.09 203.803 291.024 200.926C291.009 200.307 291.174 199.024 290.881 198.425C290.417 197.473 288.641 197.191 288.686 198.71" fill="#C1DEE2"/>
<path fill-rule="evenodd" clip-rule="evenodd" d="M286.416 196.124C281.763 201.347 275.356 200.962 268.901 201.419C265.49 201.661 262.042 202.157 259.297 204.363C258.021 205.389 256.92 206.675 256.181 208.14C255.857 208.78 254.324 212.475 256.627 211.599C257.444 211.288 258.248 208.844 258.776 208.121C259.782 206.745 261.069 205.608 262.613 204.869C265.592 203.444 269.149 203.469 272.379 203.288C275.755 203.099 279.379 202.922 282.483 201.454C283.943 200.763 285.313 199.902 286.487 198.792C286.907 198.395 287.808 197.721 287.875 197.114C287.951 196.421 287.285 195.151 286.416 196.124" fill="#C1DEE2"/>
<path fill-rule="evenodd" clip-rule="evenodd" d="M262.927 212.153C258.556 212.299 254.191 212.476 249.826 212.753C248.932 212.809 245.95 212.629 246.709 214.461C247.318 215.93 250.955 214.959 252.158 214.887C256.706 214.617 261.273 214.524 265.811 214.114C266.831 214.023 271.439 214.059 269.536 212.252C268.631 211.392 264.178 212.111 262.927 212.153" fill="#89C5CC"/>
<path fill-rule="evenodd" clip-rule="evenodd" d="M243.934 214.261C242.556 216.071 243.189 220.469 243.293 222.644C243.394 224.752 242.985 228.606 245.736 228.933C244.862 228.818 246.399 228.986 246.649 228.999C247.208 229.029 247.769 229.039 248.329 229.045C249.621 229.059 250.914 229.042 252.206 229.016C255.133 228.957 258.067 228.872 260.991 228.71C262.219 228.642 268.885 228.699 269.149 227.423C269.486 225.792 263.095 226.714 261.951 226.766C259.165 226.894 256.374 226.921 253.585 226.958C252.203 226.976 250.819 226.989 249.437 226.962C248.866 226.951 246.606 227.186 246.259 226.805C245.963 226.481 246.194 223.5 246.188 223.045C246.167 221.558 246.169 220.069 246.222 218.583C246.258 217.583 246.798 215.681 246.358 214.741C245.929 213.828 244.68 213.516 243.934 214.261" fill="#89C5CC"/>
<path fill-rule="evenodd" clip-rule="evenodd" d="M266.439 214.346C266.519 217.656 266.544 221.033 267.325 224.27C267.586 225.348 267.95 227.569 269.033 228.127C270.168 228.713 271.149 227.877 271.223 226.751C271.317 225.336 270.559 223.479 270.404 222.027C270.222 220.333 270.117 218.637 270.055 216.934C270.008 215.654 270.397 213.735 269.176 212.909C268.08 212.167 266.403 212.914 266.439 214.346" fill="#89C5CC"/>
<path fill-rule="evenodd" clip-rule="evenodd" d="M275.137 213.538C273.778 214.892 274.386 219.179 274.556 220.919C274.68 222.193 276.075 228.462 278.165 225.193C279.089 223.747 277.915 219.923 277.923 218.237C277.928 217.163 278.309 215.806 278.125 214.774C277.883 213.41 276.371 212.306 275.137 213.538" fill="#89C5CC"/>
<path fill-rule="evenodd" clip-rule="evenodd" d="M284.549 212.42C288.632 211.999 292.72 211.683 296.825 211.644C297.022 211.642 297.229 211.64 297.445 211.637C300.259 211.601 304.487 211.547 306.381 213.66C307.412 214.812 307.88 216.591 308.287 218.142C308.363 218.431 308.437 218.713 308.512 218.981C308.576 219.21 308.66 219.471 308.75 219.753C309.175 221.084 309.75 222.886 309.167 224.002C308.847 224.614 308.332 225.135 307.55 224.918C307.368 224.868 307.226 224.804 307.114 224.728C307.413 225.052 307.545 225.513 307.35 225.964C306.974 226.837 305.787 226.856 304.85 226.871C304.624 226.874 304.412 226.877 304.229 226.893C301.112 227.152 297.981 227.326 294.852 227.353C293.363 227.366 291.873 227.354 290.384 227.342C288.85 227.329 287.317 227.317 285.784 227.332C284.671 227.343 283.538 227.449 282.404 227.554C280.972 227.688 279.54 227.822 278.148 227.765C277.107 227.722 275.995 227.381 276.259 226.035C276.474 224.936 277.508 224.84 278.435 224.754C278.516 224.747 278.596 224.739 278.674 224.731C281.625 224.431 284.578 224.325 287.544 224.335C293.775 224.357 300.001 224.325 306.232 224.292C306.487 224.313 306.728 224.41 306.926 224.559C306.703 224.287 306.707 223.925 306.712 223.539C306.714 223.365 306.716 223.185 306.697 223.007C306.659 222.649 306.624 222.292 306.59 221.936C306.474 220.76 306.36 219.592 306.136 218.409C306.102 218.231 306.069 218.034 306.035 217.826C305.831 216.597 305.56 214.97 304.584 214.307C303.602 213.64 301.676 213.672 300.175 213.697C299.77 213.703 299.396 213.71 299.079 213.701C295.074 213.598 291.046 213.883 287.059 214.245C286.753 214.273 286.447 214.3 286.139 214.326C284.623 214.458 283.098 214.591 281.603 214.863C281.33 214.912 280.912 215.058 280.432 215.225C279.157 215.67 277.447 216.267 276.866 215.61C274.941 213.433 283.4 212.539 284.549 212.42Z" fill="#89C5CC"/>
<path fill-rule="evenodd" clip-rule="evenodd" d="M327.988 207.463C328.165 207.691 328.165 207.691 327.988 207.463ZM300.358 193.975C297.878 195.432 302.468 199.709 303.637 200.371C306.268 201.859 309.883 202.083 312.821 202.502C316.539 203.032 320.585 203.227 324.158 204.446C325.681 204.965 326.649 205.775 327.645 207.02C328.151 207.651 329.367 210.37 330.474 209.726C332.705 208.43 326.695 202.99 325.371 202.405C322.361 201.075 318.803 200.703 315.585 200.187C312.592 199.706 309.535 199.349 306.616 198.503C305.012 198.037 303.871 197.287 302.946 195.849C302.369 194.954 301.896 193.075 300.358 193.975" fill="#C1DEE2"/>
<path fill-rule="evenodd" clip-rule="evenodd" d="M338.373 210.682C335.514 210.745 332.661 210.965 329.808 211.185C328.207 211.309 326.607 211.432 325.006 211.528C324.505 211.558 324.004 211.585 323.503 211.612L323.502 211.612C322.092 211.688 320.68 211.764 319.276 211.905C319.063 211.927 318.816 211.947 318.547 211.969C317.355 212.067 315.729 212.201 314.69 212.636C313.738 211.915 312.269 212.528 312.246 213.811C312.207 216.15 312.228 218.447 312.513 220.771C312.579 221.31 312.92 224.042 313.662 225.464C313.398 226.806 314.543 227.183 315.608 227.286C319.734 227.684 324.062 227.375 328.33 227.07C330.501 226.915 332.657 226.761 334.764 226.701C335.464 226.682 336.174 226.674 336.888 226.666C339.217 226.64 341.591 226.613 343.846 226.172C343.937 226.155 344.034 226.137 344.136 226.119C345.027 225.959 346.257 225.739 346.35 224.758C346.407 224.169 346.074 223.63 345.518 223.554C345.557 223.063 345.495 222.528 345.45 222.134C345.439 222.043 345.429 221.959 345.422 221.885C345.287 220.52 344.947 219.165 344.611 217.827L344.611 217.826C344.536 217.526 344.461 217.226 344.388 216.927C344.308 216.595 344.233 216.202 344.153 215.777C343.869 214.278 343.513 212.394 342.565 211.519C341.572 210.602 339.954 210.643 338.658 210.675C338.561 210.678 338.466 210.68 338.373 210.682ZM343.404 223.7C343.065 222.813 342.966 221.613 342.872 220.473C342.813 219.757 342.755 219.064 342.642 218.487C342.557 218.054 342.487 217.597 342.416 217.133L342.416 217.133C342.244 216.006 342.065 214.834 341.642 213.846C341.075 212.524 340.571 212.574 339.378 212.694C339.156 212.716 338.91 212.741 338.635 212.759C337.419 212.842 336.204 212.947 334.99 213.052C334.407 213.103 333.824 213.153 333.241 213.201C330.747 213.406 328.251 213.564 325.756 213.721L325.755 213.721C324.297 213.813 322.839 213.905 321.381 214.007C320.236 214.087 319.119 214.304 318.007 214.521L318.007 214.521C317.126 214.692 316.248 214.863 315.361 214.965C315.349 215.268 315.323 215.572 315.299 215.862C315.266 216.257 315.235 216.625 315.242 216.926C315.271 218.261 315.389 219.589 315.507 220.918L315.507 220.918C315.525 221.123 315.543 221.327 315.561 221.532C315.582 221.777 315.635 222.092 315.694 222.441C315.784 222.982 315.888 223.604 315.911 224.178C316.019 224.177 316.127 224.177 316.232 224.178C316.369 224.178 316.503 224.179 316.631 224.176C319.774 224.121 322.914 224.026 326.055 223.905C326.456 223.89 326.857 223.874 327.258 223.859C330.06 223.75 332.862 223.641 335.666 223.608C336.781 223.596 337.909 223.631 339.042 223.666C340.498 223.711 341.96 223.756 343.404 223.7Z" fill="#89C5CC"/>
</g>
<path fill-rule="evenodd" clip-rule="evenodd" d="M191.592 225.546C195.556 227.934 199.451 229.088 201.28 228.617C205.865 227.436 206.286 210.67 202.739 204.061C199.191 197.451 180.954 194.57 180.035 207.666C179.716 212.211 181.625 216.267 184.446 219.577L179.388 243.142H194.08L191.592 225.546Z" fill="#B28B67"/>
<path fill-rule="evenodd" clip-rule="evenodd" d="M200.303 196.803C203.404 197.177 205.958 197.485 207.075 196.774C207.872 201.77 205.301 205.798 196.259 205.019C194.265 206.134 192.846 208.223 191.138 210.963C190.722 210.8 190.269 210.71 189.795 210.71C187.767 210.71 186.122 212.354 186.122 214.382C186.122 215.411 186.546 216.341 187.229 217.008C186.379 218.207 185.426 219.46 184.335 220.753C180.262 218.31 177.232 211.191 181.121 204.318C183.442 194.768 193.278 195.955 200.303 196.803Z" fill="#191847"/>
<path fill-rule="evenodd" clip-rule="evenodd" d="M178.751 296.422L208.798 372.44L228.951 436.707H236.909L206.1 296.422L178.751 296.422Z" fill="#997659"/>
<path fill-rule="evenodd" clip-rule="evenodd" d="M172.701 296.422C172.381 323.135 167.715 359.1 166.969 360.765C166.224 362.43 115.498 403.116 115.498 403.116L120.979 408.979C120.979 408.979 180.831 374.096 183.6 369.444C186.37 364.791 195.387 321.978 202.626 296.422H172.701Z" fill="#B28B67"/>
<path fill-rule="evenodd" clip-rule="evenodd" d="M116.365 401.968C116.174 401.307 115.478 400.914 114.831 401.149C113.603 401.596 111.767 402.333 110.961 403.01C109.692 404.074 107.613 406.537 107.613 406.537C108.848 408.008 129.807 432.976 129.807 432.976C129.807 432.976 134.081 431.148 132.489 428.7C130.897 426.251 129.883 424.599 129.883 424.599L125.041 407.689C124.95 407.371 124.614 407.191 124.298 407.291L121.694 408.116C121.694 408.116 119.009 406.866 117.93 405.58C117.264 404.787 116.699 403.123 116.365 401.968Z" fill="#E4E4E4"/>
<path fill-rule="evenodd" clip-rule="evenodd" d="M227.34 433.034C226.711 432.756 225.963 433.036 225.727 433.682C225.28 434.91 224.665 436.789 224.665 437.842C224.665 439.497 225.217 442.673 225.217 442.673C227.138 442.673 259.745 442.673 259.745 442.673C259.745 442.673 261.091 438.225 258.191 437.871C255.291 437.516 253.373 437.23 253.373 437.23L237.302 430.068C236.999 429.934 236.645 430.075 236.519 430.381L235.478 432.906C235.478 432.906 232.794 434.158 231.115 434.158C230.078 434.158 228.44 433.521 227.34 433.034Z" fill="#E4E4E4"/>
<path fill-rule="evenodd" clip-rule="evenodd" d="M198.953 430.087L236.789 425.983L208.748 296.422H174.86L198.953 430.087Z" fill="#69A1AC"/>
<path fill-rule="evenodd" clip-rule="evenodd" d="M123.324 393.658L148.142 423.021C148.142 423.021 187.352 380.214 193.861 367.158C200.37 354.102 205.564 296.422 205.564 296.422H167.412C167.412 296.422 164.575 347.166 163.588 349.528C162.6 351.889 123.324 393.658 123.324 393.658Z" fill="#89C5CC"/>
<path fill-rule="evenodd" clip-rule="evenodd" d="M134.858 325.177C136.719 321.427 146.019 273.163 146.019 273.163L159.926 273.215C159.926 273.215 144.037 324.341 143.058 326.752C141.785 329.885 143.947 334.436 145.413 337.522C145.64 338 145.85 338.442 146.028 338.839C143.994 339.743 143.017 338.65 141.987 337.498C140.823 336.197 139.592 334.82 136.694 336.16C135.574 336.677 134.514 337.289 133.479 337.886C129.903 339.95 126.618 341.847 122.15 339.108C121.441 338.674 120.665 337.04 122.541 335.762C127.214 332.58 133.948 327.01 134.858 325.177ZM251.991 306.371L233.999 288.94L228.023 299.209L246.733 310.164C251.424 317.503 254.179 320.674 254.998 319.677C255.689 318.837 255.372 317.915 255.081 317.067C254.854 316.405 254.642 315.788 254.933 315.288C255.598 314.145 259.354 314.8 262.892 315.572C266.43 316.345 265.611 314.619 264.859 313.718C261.516 311.038 257.226 308.589 251.991 306.371Z" fill="#B28B67"/>
<path fill-rule="evenodd" clip-rule="evenodd" d="M188.398 233.981L193.89 233.045C202.542 263.418 246.994 284.122 249.723 295.476C250.723 299.64 247.706 301.745 249.264 303.014L242.126 308.204C240.917 306.803 238.337 309.365 232.95 307.573C227.563 305.78 188.398 269.945 188.398 233.981Z" fill="#DB2721"/>
<path fill-rule="evenodd" clip-rule="evenodd" d="M178.44 227.626C177.145 227.536 176.022 228.513 175.931 229.808L175.658 233.675C165.322 241.575 139.705 265.18 133.03 309.123C132.329 313.738 133.597 316.211 134.61 318.186C135.303 319.538 135.877 320.657 135.62 322.07L144.962 324.631C144.962 323.588 146.14 322.794 147.659 321.769C149.868 320.28 152.799 318.304 153.882 314.365C154.91 310.631 156.414 305.967 158.211 300.779C158.381 307.65 159.693 313.969 162.551 319.203C169.682 332.261 210.89 317.941 215.196 304.62C217.493 297.511 214.233 291.543 209.922 283.651C204.449 273.632 197.283 260.512 197.636 238.02L198.106 231.348C198.197 230.053 197.222 228.931 195.927 228.841L178.44 227.626Z" fill="#FF4133"/>
<mask id="mask0_1_5" style="mask-type:alpha" maskUnits="userSpaceOnUse" x="0" y="0" width="376" height="479">
<rect x="0.0458984" width="375" height="479" fill="#C4C4C4"/>
</mask>
<g mask="url(#mask0_1_5)">
</g>
</svg>
