<svg width="21" height="22" viewBox="0 0 21 22" fill="none" xmlns="http://www.w3.org/2000/svg">
<path d="M16.6037 7.00195C16.6037 5.41066 15.9715 3.88453 14.8463 2.75931C13.7211 1.6341 12.195 1.00195 10.6037 1.00195C9.01237 1.00195 7.48625 1.63409 6.36103 2.75931C5.23581 3.88453 4.60367 5.41065 4.60367 7.00195C4.60367 14.002 1.60367 16.002 1.60367 16.002L19.6037 16.002C19.6037 16.002 16.6037 14.002 16.6037 7.00195Z" stroke="#303030" stroke-opacity="0.8" stroke-width="2" stroke-linecap="round" stroke-linejoin="round"/>
<path d="M12.3337 20.002C12.1579 20.305 11.9055 20.5566 11.6019 20.7315C11.2983 20.9064 10.9541 20.9984 10.6037 20.9984C10.2533 20.9984 9.90908 20.9064 9.60546 20.7315C9.30184 20.5566 9.0495 20.305 8.87369 20.002" stroke="#303030" stroke-opacity="0.8" stroke-width="2" stroke-linecap="round" stroke-linejoin="round"/>
</svg>
