<svg width="375" height="491" viewBox="0 0 375 491" fill="none" xmlns="http://www.w3.org/2000/svg">
<path fill-rule="evenodd" clip-rule="evenodd" d="M183.896 273.869C179.889 276.284 175.951 277.451 174.103 276.975C169.468 275.78 169.042 258.825 172.628 252.14C176.214 245.456 194.65 242.542 195.579 255.786C195.902 260.383 193.972 264.485 191.12 267.832L196.233 291.665H181.381L183.896 273.869Z" fill="#B28B67"/>
<path fill-rule="evenodd" clip-rule="evenodd" d="M181.093 244.436C183.051 244.115 188.322 243.895 189.294 243.895C189.915 243.895 190.588 244.037 190.956 243.466C191.257 242.999 191.147 242.209 191.237 241.667C191.341 241.038 191.489 240.416 191.639 239.796C192.066 238.032 192.712 236.354 193.615 234.778C195.309 231.822 197.792 229.506 200.926 228.159C204.387 226.671 208.303 226.33 212.026 226.632C216.01 226.955 219.616 228.27 223.378 229.508C226.962 230.687 230.716 231.151 234.465 230.575C238.242 229.995 241.096 227.948 244.282 226.005C247.544 224.016 251.271 222.714 255.127 223.014C258.726 223.293 262.043 224.779 265.019 226.764C267.804 228.622 270.101 230.856 271.399 234.001C272.794 237.385 272.793 241.098 270.498 244.088C267.172 248.423 260.997 249.543 255.86 249.432C252.888 249.368 249.97 248.825 247.165 247.838C243.423 246.523 240.19 244.292 236.69 242.482C235.047 241.633 233.349 240.936 231.57 240.433C229.843 239.946 228.142 239.722 226.578 240.765C224.924 241.869 223.442 242.953 221.549 243.644C219.734 244.307 217.811 244.677 215.877 244.663C212.114 244.633 208.404 243.461 204.749 242.676C201.769 242.035 198.58 241.397 195.542 242.013C194.274 242.27 192.422 242.8 191.964 244.118C199.671 245.514 202.698 255.047 200.526 262.044C199.353 265.821 192.303 270.236 189.562 268.25C187.826 266.993 188.88 265.341 189.562 264.251C190.869 262.163 191.316 259.482 188.898 258.028C186.813 256.775 184.62 259.752 184.579 259.748C184.006 259.703 179.053 256.902 175.641 252.815C172.275 253.014 171.764 250.795 172.568 248.98C173.372 247.165 178.389 244.88 181.093 244.436Z" fill="#191847"/>
<path fill-rule="evenodd" clip-rule="evenodd" d="M202.422 450.712C176.104 450.712 154.769 430.347 154.769 405.226C154.769 380.104 176.104 359.739 202.422 359.739C228.74 359.739 250.074 380.104 250.074 405.226C250.074 430.347 228.74 450.712 202.422 450.712Z" fill="#C5CFD6"/>
<path fill-rule="evenodd" clip-rule="evenodd" d="M128.336 402.8C126.035 410.862 120.3 426.144 112.371 443.694L104.836 441.496C111.428 401.112 116.914 374.376 120.056 366.239C122.133 360.862 137.841 361.492 136.034 372.31C135.276 376.847 132.277 388.995 128.336 402.8ZM159.307 374.197C171.594 376.743 197.072 385.742 204.347 388.618C208.919 390.425 205.972 396.554 202.071 396.018C201.41 395.927 199.073 395.666 195.587 395.276C184.386 394.023 161.321 391.442 143.828 388.925C134.617 387.599 139.572 370.345 149.136 372.171C152.353 372.785 155.776 373.465 159.307 374.197Z" fill="#B28B67"/>
<path fill-rule="evenodd" clip-rule="evenodd" d="M119.576 361.681C120.832 357.582 177.938 343.03 177.938 343.03H182.618V347.391L143.267 367.423C143.319 368.07 143.287 368.753 143.16 369.473C143.444 384.324 137.088 395.418 130.795 406.403C126.68 413.586 122.592 420.721 120.406 428.83L105.948 426.673C106.369 425.596 107.035 420.739 107.946 414.099C110.241 397.357 114.092 369.275 119.494 361.845C119.513 361.82 119.532 361.794 119.552 361.768C119.559 361.739 119.567 361.71 119.576 361.681Z" fill="#1F28CF"/>
<path fill-rule="evenodd" clip-rule="evenodd" d="M179.349 379.32C182.949 378.6 186.265 377.956 189.102 377.459C207.429 374.244 212.773 364.434 209.613 343.03H175.847C170.331 344.615 141.665 356.636 126.793 363.029C116.949 367.261 120.052 382.517 125.627 386.486C125.657 386.73 125.757 386.895 125.936 386.969C147.07 395.729 165.093 395.075 176.667 394.656C181.514 394.48 185.23 394.345 187.569 394.96L191.235 383.397L179.349 379.32Z" fill="#2B44FF"/>
<path fill-rule="evenodd" clip-rule="evenodd" d="M200.486 388.018C200.514 387.294 201.125 386.715 201.846 386.792C203.16 386.931 205.1 387.205 206.044 387.665C207.548 388.399 210.19 390.308 210.19 390.308C209.339 392.053 194.889 421.68 194.889 421.68C194.889 421.68 190.25 420.931 191.212 418.139C192.175 415.347 192.765 413.478 192.765 413.478L193.377 395.726C193.389 395.378 193.686 395.108 194.034 395.13L196.765 395.301C196.765 395.301 199.092 393.417 199.836 391.892C200.289 390.964 200.438 389.232 200.486 388.018Z" fill="#E4E4E4"/>
<path fill-rule="evenodd" clip-rule="evenodd" d="M114.265 439.748C114.929 439.457 115.717 439.752 115.964 440.433C116.414 441.676 117.019 443.539 117.019 444.589C117.019 446.263 116.461 449.474 116.461 449.474C114.519 449.474 81.5564 449.474 81.5564 449.474C81.5564 449.474 80.1958 444.976 83.1272 444.618C86.0586 444.259 87.9975 443.97 87.9975 443.97L104.221 436.737C104.539 436.595 104.912 436.744 105.045 437.067L106.088 439.596C106.088 439.596 108.802 440.863 110.498 440.863C111.531 440.863 113.154 440.237 114.265 439.748Z" fill="#E4E4E4"/>
<path fill-rule="evenodd" clip-rule="evenodd" d="M121.824 316.236L144.248 326.084L137.088 335.257L120.293 322.38C111.905 320.84 108.014 319.516 108.622 318.409C109.135 317.476 110.089 317.424 110.967 317.375C111.651 317.338 112.29 317.302 112.639 316.855C113.436 315.835 111.469 312.682 109.475 309.769C107.481 306.857 109.35 306.962 110.444 307.311C114.102 309.346 117.896 312.322 121.824 316.236ZM222.225 331.312L234.906 328.796C243.507 351.465 248.634 363.887 250.289 366.063C251.502 367.659 258.983 371.768 264.047 373.963C266.08 374.844 265.644 376.562 265.047 377.111C261.287 380.577 257.791 379.363 253.986 378.04C252.884 377.657 251.756 377.265 250.589 376.975C247.567 376.225 246.647 377.779 245.778 379.247C245.009 380.548 244.279 381.781 242.165 381.289C242.261 380.874 242.379 380.409 242.507 379.907C243.331 376.664 244.546 371.882 242.743 369.103C241.817 367.677 234.978 355.08 222.225 331.312Z" fill="#B28B67"/>
<path fill-rule="evenodd" clip-rule="evenodd" d="M187.758 281.349L182.407 280.431C170.751 291.738 165.994 318.902 158.227 322.498C150.882 325.897 140.472 322.608 128.097 318.166L124.307 326.633C135.551 338.797 159.504 349.074 169.214 343.207C184.737 333.827 188.321 300.325 187.758 281.349Z" fill="#DB2721"/>
<path fill-rule="evenodd" clip-rule="evenodd" d="M211.086 348.6C211.086 348.6 178.9 348.6 163.736 348.6C161.572 348.6 161.98 345.476 162.293 343.899C165.902 325.704 179.994 306.091 179.994 280.191L193.651 278.05C204.948 296.218 208.855 318.588 211.086 348.6Z" fill="#DDE3E9"/>
<path fill-rule="evenodd" clip-rule="evenodd" d="M192.067 278.05H194.533C225.167 296.928 243.681 326.191 250.074 365.841L240.149 367.785C233.575 360.125 225.461 347.589 215.808 330.176C218.769 340.665 220.932 351.423 221.606 361.596H178.984C170.732 340.744 189.124 278.05 189.124 278.05L192.067 278.05Z" fill="#FF4133"/>
<mask id="mask0_196_7" style="mask-type:alpha" maskUnits="userSpaceOnUse" x="0" y="0" width="375" height="479">
<rect width="375" height="479" fill="#C4C4C4"/>
</mask>
<g mask="url(#mask0_196_7)">
<path fill-rule="evenodd" clip-rule="evenodd" d="M310.809 125.206C329.997 125.206 345.552 109.651 345.552 90.4633C345.552 71.2752 329.997 55.7202 310.809 55.7202C291.621 55.7202 276.066 71.2752 276.066 90.4633C276.066 109.651 291.621 125.206 310.809 125.206Z" fill="#F2F2F2"/>
<path fill-rule="evenodd" clip-rule="evenodd" d="M310.809 64.8976C311.895 64.8976 312.776 64.0171 312.776 62.931C312.776 61.8449 311.895 60.9644 310.809 60.9644C309.723 60.9644 308.843 61.8449 308.843 62.931C308.843 64.0171 309.723 64.8976 310.809 64.8976Z" fill="black" fill-opacity="0.1"/>
<path fill-rule="evenodd" clip-rule="evenodd" d="M283.277 92.4299C284.363 92.4299 285.244 91.5494 285.244 90.4633C285.244 89.3772 284.363 88.4967 283.277 88.4967C282.191 88.4967 281.311 89.3772 281.311 90.4633C281.311 91.5494 282.191 92.4299 283.277 92.4299Z" fill="black" fill-opacity="0.1"/>
<path fill-rule="evenodd" clip-rule="evenodd" d="M338.342 92.4299C339.428 92.4299 340.308 91.5494 340.308 90.4633C340.308 89.3772 339.428 88.4967 338.342 88.4967C337.255 88.4967 336.375 89.3772 336.375 90.4633C336.375 91.5494 337.255 92.4299 338.342 92.4299Z" fill="black" fill-opacity="0.1"/>
<path fill-rule="evenodd" clip-rule="evenodd" d="M310.809 119.962C311.895 119.962 312.776 119.082 312.776 117.996C312.776 116.909 311.895 116.029 310.809 116.029C309.723 116.029 308.843 116.909 308.843 117.996C308.843 119.082 309.723 119.962 310.809 119.962Z" fill="black" fill-opacity="0.1"/>
<path fill-rule="evenodd" clip-rule="evenodd" d="M310.809 66.8642L312.12 89.8078H309.498L310.809 66.8642Z" fill="#AFB9C5"/>
<path fill-rule="evenodd" clip-rule="evenodd" d="M322.411 102.065L310.36 91.8675L312.214 90.0134L322.411 102.065Z" fill="#AFB9C5"/>
<path fill-rule="evenodd" clip-rule="evenodd" d="M310.81 93.0854C312.258 93.0854 313.432 91.9115 313.432 90.4633C313.432 89.0152 312.258 87.8412 310.81 87.8412C309.361 87.8412 308.188 89.0152 308.188 90.4633C308.188 91.9115 309.361 93.0854 310.81 93.0854Z" fill="#C5CFD6"/>
<g opacity="0.345889" clip-path="url(#clip0_196_7)">
<path fill-rule="evenodd" clip-rule="evenodd" d="M273.964 272.953C269.444 222.445 26.9405 124.96 -18.0794 172.8C-63.0994 220.64 -19.8183 310.423 74.5269 333.414C168.872 356.406 278.484 323.461 273.964 272.953Z" fill="#E8E8E8"/>
<path fill-rule="evenodd" clip-rule="evenodd" d="M124.077 305.771C128.126 262.863 345.35 180.045 385.677 220.687C426.004 261.329 415.797 346.815 331.286 366.346C246.776 385.878 120.028 348.679 124.077 305.771Z" fill="#F8F8F8"/>
</g>
<g clip-path="url(#clip1_196_7)">
<path fill-rule="evenodd" clip-rule="evenodd" d="M-6.14042 137.447C9.24628 137.447 21.7197 130.844 21.7197 122.698C21.7197 114.552 9.24628 107.949 -6.14042 107.949C-21.5271 107.949 -34.0005 114.552 -34.0005 122.698C-34.0005 130.844 -21.5271 137.447 -6.14042 137.447Z" fill="#F2F2F2"/>
<path fill-rule="evenodd" clip-rule="evenodd" d="M26.3082 132.859C26.3082 114.757 11.7804 100.082 -6.14056 100.082C-24.0615 100.082 -38.5894 114.757 -38.5894 132.859" fill="#DDE3E9"/>
</g>
<g opacity="0.7" clip-path="url(#clip2_196_7)">
<path fill-rule="evenodd" clip-rule="evenodd" d="M44.6636 104.229C56.1647 104.229 65.4883 98.9003 65.4883 92.3264C65.4883 85.7525 56.1647 80.4233 44.6636 80.4233C33.1624 80.4233 23.8389 85.7525 23.8389 92.3264C23.8389 98.9003 33.1624 104.229 44.6636 104.229Z" fill="#F2F2F2"/>
<path fill-rule="evenodd" clip-rule="evenodd" d="M68.919 100.526C68.919 85.9176 58.0598 74.075 44.6643 74.075C31.2688 74.075 20.4097 85.9176 20.4097 100.526" fill="#DDE3E9"/>
<rect x="43.353" width="3.27766" height="89.1522" fill="#DDE3E9"/>
</g>
<g clip-path="url(#clip3_196_7)">
<path d="M327.853 153.549L340.025 141.372C342.073 139.323 345.395 139.323 347.443 141.372L379.847 173.79C381.813 175.757 382.918 178.424 382.918 181.205V395.941" stroke="#CBCBCB" stroke-width="5.24425"/>
<rect x="363.252" y="395.285" width="38.6763" height="4.58872" rx="1.96659" fill="#AFB9C5"/>
<path d="M304.58 146.403C313.028 137.955 326.725 137.955 335.173 146.403V146.403C343.621 154.851 343.621 168.548 335.173 176.996L322.195 189.975L291.602 159.382L304.58 146.403Z" fill="#C5CFD6"/>
<path fill-rule="evenodd" clip-rule="evenodd" d="M304.402 177.339C312.85 185.787 321.048 191.286 322.712 189.622C324.376 187.958 318.876 179.761 310.428 171.313C301.98 162.865 293.783 157.365 292.119 159.029C290.455 160.693 295.954 168.891 304.402 177.339Z" fill="#F2F2F2"/>
</g>
<path fill-rule="evenodd" clip-rule="evenodd" d="M-13.5103 243.971C-11.6324 243.742 -9.62824 243.823 -7.88193 244.564C-4.16856 246.14 -3.11303 250.527 -3.16396 254.093C-3.21885 257.931 -4.03385 262.122 -1.11603 265.215C0.225226 266.636 1.89365 267.724 3.21068 269.172C4.61794 270.719 5.72215 272.489 6.53973 274.39C8.04091 277.882 8.77771 281.988 7.40497 285.65C6.19629 288.875 3.15539 291.786 3.81246 295.453C4.49783 299.278 8.35449 302.203 10.7657 305.052C13.4945 308.276 16.007 312.397 16.4197 316.626C16.8155 320.678 15.0515 324.777 12.3444 327.84C6.93561 333.961 -1.19466 336.962 -9.39248 336.943C-12.873 336.935 -16.8138 336.778 -19.8174 334.907C-20.7457 334.329 -21.2355 333.681 -21.7873 332.779C-22.2821 331.97 -22.9357 331.444 -23.6923 330.872C-25.3545 329.616 -26.5548 327.922 -27.3209 326.026C-30.2956 318.663 -27.918 309.553 -23.7541 303.015C-22.7674 301.465 -21.9596 299.975 -22.4389 298.128C-22.9391 296.201 -24.1685 294.462 -25.2559 292.805C-26.3304 291.168 -27.557 289.605 -28.3969 287.835C-29.2764 285.98 -29.5241 284.038 -29.3687 282.008C-29.0766 278.195 -27.4306 274.676 -25.1002 271.61C-22.8557 268.656 -20.2202 265.83 -20.2143 261.96C-20.2078 257.858 -22.9501 254.209 -21.7818 250.039C-21.2981 248.312 -20.3265 246.54 -18.7607 245.505C-17.259 244.512 -15.2763 244.187 -13.5103 243.971Z" fill="#DDE3E9"/>
<path fill-rule="evenodd" clip-rule="evenodd" d="M36.0706 251.45C38.3943 252.156 40.7022 253.294 42.3587 255.079C45.8809 258.875 44.8002 264.612 42.8558 268.803C40.7629 273.313 37.5913 277.846 39.3792 283.021C40.201 285.4 41.5828 287.555 42.3623 289.952C43.1952 292.514 43.5547 295.182 43.5089 297.855C43.4241 302.765 42.118 308.004 38.5719 311.622C35.4497 314.807 30.3446 316.667 29.1771 321.346C27.9591 326.226 30.9368 331.691 32.2589 336.315C33.7552 341.548 34.5239 347.728 32.7729 352.944C31.0952 357.942 26.86 361.871 22.0657 364.086C12.4864 368.511 1.36433 367.83 -8.24107 363.543C-12.3192 361.723 -16.8582 359.487 -19.3925 355.713C-20.1758 354.546 -20.4073 353.524 -20.578 352.171C-20.731 350.957 -21.2197 349.995 -21.8047 348.925C-23.09 346.574 -23.6028 343.947 -23.4992 341.306C-23.0963 331.051 -15.4927 321.514 -7.15261 315.947C-5.1765 314.629 -3.44106 313.286 -3.02726 310.853C-2.59511 308.313 -3.11812 305.617 -3.51772 303.092C-3.91246 300.597 -4.52552 298.111 -4.5747 295.58C-4.626 292.929 -3.88991 290.503 -2.63472 288.184C-0.276737 283.826 3.51368 280.521 7.86779 278.107C12.0617 275.782 16.6467 273.81 18.6993 269.236C20.875 264.389 19.5872 258.647 23.1618 254.323C24.6419 252.532 26.718 250.942 29.1017 250.532C31.3878 250.139 33.8851 250.787 36.0706 251.45Z" fill="#DDE3E9"/>
<path fill-rule="evenodd" clip-rule="evenodd" d="M31.3238 259.466C31.6535 258.832 32.5907 258.784 33.117 259.224C33.8096 259.803 33.463 260.545 33.1469 261.203C32.1754 263.226 31.5867 265.352 31.1933 267.561C30.3749 272.154 30.559 276.806 30.2827 281.447C30.0065 286.083 28.8876 290.496 26.1598 294.311C23.588 297.907 20.5941 301.191 18.0009 304.784C15.7153 307.951 13.2981 311.287 12.88 315.28C12.4773 319.124 13.661 322.932 14.0421 326.739C14.8311 334.62 13.3315 342.299 10.3712 349.567C8.99634 352.941 7.42151 356.263 5.21397 359.187C3.94303 360.872 2.22877 363.149 0.0629951 363.734C-0.935717 364.004 -2.28245 363.649 -2.50793 362.485C-2.71998 361.393 -1.64179 360.334 -1.06562 359.53C1.42884 356.049 3.3237 352.199 4.85614 348.217C6.34066 344.36 7.5668 340.394 7.98805 336.264C8.37883 332.43 8.05379 328.684 7.40147 324.885C6.73686 321.014 5.99655 317.101 6.73972 313.2C7.49421 309.238 9.78572 305.889 12.2472 302.774C14.8505 299.48 17.703 296.424 20.6005 293.382C23.424 290.418 25.3486 287.279 26.2857 283.272C28.1371 275.355 27.4821 266.852 31.3238 259.466Z" fill="#C5CFD6"/>
<path fill-rule="evenodd" clip-rule="evenodd" d="M-35.7668 280.567C-31.9029 280.567 -28.5059 282.615 -26.1651 285.522C-23.4251 288.924 -22.8717 293.079 -21.759 297.134C-21.2054 299.152 -20.2531 301.155 -18.5844 302.526C-17.0666 303.773 -15.1398 304.022 -13.323 304.632C-9.6922 305.849 -6.76038 308.782 -5.60252 312.36C-4.18996 316.725 -5.68613 321.127 -5.42851 325.551C-5.19203 329.613 -1.18644 332.148 2.0363 334.095C5.21408 336.016 8.07688 337.813 9.03398 341.555C10.0489 345.522 10.3894 349.951 8.98367 353.871C6.64318 360.397 -0.206495 363.271 -6.82503 363.717C-12.8316 364.121 -20.3841 363.486 -24.895 359.126C-27.5942 356.517 -28.5717 352.868 -28.4505 349.237C-28.3751 346.98 -27.9279 344.743 -27.3497 342.562C-26.94 341.016 -26.3863 339.476 -26.2286 337.878C-25.8093 333.627 -29.7381 332.811 -33.0824 331.644C-37.332 330.161 -40.3071 327.359 -42.3758 323.456C-44.3024 319.821 -45.1108 315.742 -43.9559 311.741C-43.366 309.697 -42.2961 307.844 -40.8452 306.267C-40.2064 305.573 -39.3062 304.994 -38.7297 304.265C-38.1916 303.584 -38.3088 302.702 -38.4942 301.905C-39.3517 298.221 -42.0232 295.171 -42.9786 291.494C-43.8411 288.175 -43.3312 284.044 -40.2968 281.903C-38.9859 280.978 -37.3692 280.578 -35.7668 280.567Z" fill="#C5CFD6"/>
<path fill-rule="evenodd" clip-rule="evenodd" d="M-30.5015 290.165C-26.4062 294.528 -25.293 300.446 -24.9663 306.183C-24.7833 309.4 -24.9738 312.793 -24.0287 315.913C-23.2201 318.584 -21.3243 320.625 -19.3702 322.554C-15.4367 326.438 -11.0499 330.387 -9.89933 336.008C-9.22425 339.307 -9.67993 342.714 -8.74712 345.976C-7.89893 348.942 -6.40556 351.855 -4.58912 354.359C-3.12661 356.376 -1.22121 357.92 0.377521 359.8C0.865265 360.373 1.56397 361.218 1.36265 362.028C1.1271 362.977 -0.081289 363.277 -0.938638 363.128C-2.93759 362.781 -4.62022 360.872 -5.92722 359.484C-7.83841 357.455 -9.46246 355.273 -10.7825 352.825C-12.2479 350.106 -13.4278 347.221 -13.932 344.171C-14.4551 341.006 -14.1948 337.709 -15.3894 334.672C-17.3997 329.562 -22.2757 326.546 -25.801 322.563C-30.1934 317.601 -29.5383 311.424 -29.0884 305.32C-28.8413 301.965 -28.5956 298.176 -30.2908 295.113C-30.9379 293.944 -32.3806 292.854 -32.6588 291.525C-32.9137 290.307 -31.5228 289.077 -30.5015 290.165Z" fill="#AFB9C5"/>
<path fill-rule="evenodd" clip-rule="evenodd" d="M-26.134 361.853C-26.134 386.802 -22.0626 399.874 -0.568506 399.874C20.9256 399.874 24.997 386.802 24.997 361.853H-26.134Z" fill="#89C5CC"/>
<rect x="62.3623" y="325.799" width="24.9102" height="5.89978" rx="1.31106" fill="#AFB9C5"/>
<path fill-rule="evenodd" clip-rule="evenodd" d="M76.642 277.945C76.9816 288.053 78.5586 297.667 81.3729 306.789H85.6341C91.2457 306.789 95.7948 311.338 95.7948 316.949C95.7948 322.561 91.2457 327.11 85.6341 327.11H64.0016C58.39 327.11 53.8408 322.561 53.8408 316.949C53.8408 311.338 58.39 306.789 64.0016 306.789L68.918 306.789C73.1394 293.106 73.6488 277.945 73.6488 277.945L74.8176 277.945L76.642 277.945Z" fill="#DDE3E9"/>
<path fill-rule="evenodd" clip-rule="evenodd" d="M51.6267 232.503C51.6267 232.503 62.8945 231.402 74.1624 231.402C85.4302 231.402 96.6981 232.503 96.6981 232.503L99.7281 284.588C99.7281 284.588 86.9452 285.812 74.1624 285.812C61.3795 285.812 48.5967 284.588 48.5967 284.588L51.6267 232.503Z" fill="#C5CFD6"/>
<path fill-rule="evenodd" clip-rule="evenodd" d="M101.695 331.699H115.461V399.874H101.695V346.12H47.2857V399.874H33.5195V346.12V331.699H47.2857L101.695 331.699Z" fill="#F2F2F2"/>
<path fill-rule="evenodd" clip-rule="evenodd" d="M307.781 215.151C313.572 228.91 323.415 238.469 328.628 252.776C331.719 261.26 333.008 270.485 333.086 279.933C333.129 285.064 333.039 290.199 333.015 295.331C332.992 300.336 332.856 305.308 332.431 310.28C332.004 315.279 331.526 320.218 331.316 325.248C331.151 329.167 331.076 333.725 329.748 337.3C328.692 340.142 326.007 340.559 325.294 337.111C324.899 335.194 324.949 333.055 324.992 331.085C325.048 328.558 325.195 326.034 325.27 323.507C325.571 313.368 325.181 303.226 325.385 293.082C325.584 283.172 326.858 273.272 325.449 263.427C324.285 255.298 321.328 248.317 317.929 241.624C314.66 235.185 311.101 228.903 308.892 221.579C308.258 219.475 307.767 217.296 307.532 215.034C307.635 214.986 307.718 215.025 307.781 215.151Z" fill="#C1DEE2"/>
<path fill-rule="evenodd" clip-rule="evenodd" d="M306.204 242.295C307.35 243.123 307.991 244.335 308.766 245.53C309.73 247.015 310.863 248.357 311.826 249.843C313.835 252.943 315.6 256.233 317.432 259.458C320.909 265.58 323.548 272.105 324.856 279.187C326.211 286.527 326.577 294.103 327.145 301.552C327.748 309.448 328.355 317.4 328.435 325.326C328.471 328.877 328.663 332.647 328.236 336.172C327.971 338.368 326.98 340.238 324.747 340.221C320.003 340.183 317.776 334.929 316.846 330.62C315.476 324.274 315.203 317.535 315.42 311.046C315.682 303.221 317.04 295.514 317.627 287.72C318.25 279.469 317.898 271.364 315.062 263.595C313.628 259.669 311.965 255.837 310.472 251.937C309.836 250.277 309.315 248.571 308.456 247.025C307.5 245.305 306.314 243.743 305.565 241.891C305.778 242.026 305.991 242.161 306.204 242.295Z" fill="#89C5CC"/>
<path fill-rule="evenodd" clip-rule="evenodd" d="M360.849 225.842C360.994 225.729 361.14 225.616 361.285 225.503C360.866 227.268 360.11 228.702 359.531 230.315C359.011 231.766 358.748 233.407 358.398 234.993C357.575 238.717 356.625 242.357 355.848 246.112C354.31 253.544 354.601 261.55 355.61 269.796C356.562 277.584 358.068 285.361 358.786 293.148C359.381 299.606 359.637 306.265 359.069 312.427C358.684 316.611 357.419 321.607 353.975 321.185C352.353 320.986 351.508 319.035 351.167 316.831C350.619 313.293 350.505 309.572 350.291 306.053C349.815 298.198 349.72 290.368 349.626 282.595C349.537 275.26 349.292 267.78 349.782 260.631C350.255 253.732 351.733 247.515 353.847 241.779C354.96 238.757 356.021 235.665 357.272 232.785C357.872 231.403 358.605 230.182 359.205 228.802C359.688 227.692 360.072 226.552 360.849 225.842Z" fill="#C1DEE2"/>
<path fill-rule="evenodd" clip-rule="evenodd" d="M307.669 265.032C308.296 263.979 309.677 267.452 309.887 267.889C309.798 267.672 309.709 267.455 309.619 267.238C310.864 269.309 312.003 271.464 312.711 273.838C313.412 276.188 314.014 278.585 314.671 280.952C315.905 285.393 317.497 289.707 318.615 294.188C319.704 298.554 319.979 302.846 319.715 307.362C319.441 312.056 319.273 316.822 319.593 321.513C319.746 323.754 320.474 325.841 320.973 327.998C321.472 330.157 321.866 332.345 322.456 334.477C322.592 334.2 322.609 335.128 322.609 335.199C322.605 335.732 322.531 336.178 322.359 336.683C321.919 337.982 321.095 339.086 319.841 339.444C317.575 340.092 315.472 338.031 314.741 335.854C313.693 332.731 313.115 329.28 312.616 325.998C312.158 322.989 312.049 319.961 312.185 316.91C312.453 310.893 313.542 304.954 313.837 298.939C314.157 292.39 312.86 286.237 311.774 279.863C311.25 276.791 310.75 273.748 309.732 270.822C309.32 269.637 308.782 268.591 308.218 267.497C307.898 266.874 307.249 265.764 307.669 265.032Z" fill="#C1DEE2"/>
<path fill-rule="evenodd" clip-rule="evenodd" d="M326.052 254.803C325.792 262.305 325.344 269.751 324.343 277.174C323.323 284.75 322.15 292.299 321.168 299.882C320.212 307.262 319.209 314.765 319.343 322.249C319.441 327.761 318.527 337.086 324.65 339.807C330.85 342.562 332.18 330.796 332.587 326.913C333.368 319.462 333.115 311.932 332.736 304.441C332.348 296.752 331.699 289.102 330.894 281.442C330.001 272.932 329.3 264.385 328.738 255.851C328.459 251.63 328.391 247.416 328.467 243.194C328.54 239.21 328.389 235.185 326.972 231.402C326.898 231.456 326.824 231.51 326.75 231.564" fill="#69A1AC"/>
<path fill-rule="evenodd" clip-rule="evenodd" d="M358.062 278.571C356.947 280.196 355.823 281.804 354.77 283.525C352.886 286.604 351.182 290.028 350.669 294.43C349.597 303.642 350.457 313.592 350.665 323.087C350.707 325.027 350.462 326.909 351.227 328.755C351.92 330.43 353.216 331.706 354.452 331.699C357.097 331.684 356.694 325.206 356.698 322.355C356.706 317.357 356.146 312.309 356.194 307.317C356.242 302.371 356.543 297.411 357.26 292.713C357.986 287.958 359.049 283.392 360.453 279.131C360.647 278.54 362.045 273.971 360.724 274.758" fill="#89C5CC"/>
<path fill-rule="evenodd" clip-rule="evenodd" d="M346.38 229.436C344.641 229.436 344.652 238.106 344.599 239.22C344.41 243.238 344.455 247.258 344.335 251.278C344.074 260.05 343.752 268.899 342.435 277.569C341.725 282.237 340.903 286.884 340.018 291.516C339.131 296.162 337.94 300.802 337.356 305.506C336.796 310.029 337.113 314.64 337.189 319.185C337.266 323.757 337.404 328.338 338.003 332.871C338.151 333.989 338.325 335.104 338.51 336.216C338.664 337.143 338.574 338.292 338.836 339.172C339.255 340.583 341.051 341.044 342.261 340.824C345.533 340.226 347.624 336.117 348.742 333.114C350.17 329.281 350.927 325.122 351.675 321.082C352.522 316.504 353.018 311.857 353.251 307.197C353.724 297.726 353.117 288.245 352.438 278.804C352.061 273.554 351.625 268.326 350.958 263.108C350.294 257.913 349.442 252.74 348.887 247.529C348.483 243.743 348.086 239.951 347.825 236.149C347.763 235.243 347.71 229.436 346.38 229.436" fill="#69A1AC"/>
<path fill-rule="evenodd" clip-rule="evenodd" d="M344.203 292.458C343.92 283.355 340.26 243.372 339.428 232.364C339.22 229.609 337.216 218.138 336.956 215.014C336.251 215.897 336.311 229.639 336.319 232.796C336.327 235.92 335.939 238.991 335.74 242.098C335.537 245.268 330.851 286.205 330.243 289.251C329.033 295.311 328.223 301.529 327.599 307.724C326.99 313.763 326.044 320.134 326.858 326.204C327.046 327.602 327.342 328.977 327.824 330.261C328.345 331.648 328.702 332.93 329.12 334.382C329.793 336.72 331.01 338.772 332.88 339.737C336.715 341.716 338.774 337.236 339.817 333.335C341.484 327.107 342.554 320.776 343.056 314.235C343.611 306.997 344.43 299.745 344.203 292.458" fill="#89C5CC"/>
<rect x="303.599" y="319.244" width="59.6533" height="59.6533" rx="1.31106" fill="white"/>
<rect x="297.043" y="325.799" width="6.55531" height="74.075" rx="1.31106" fill="#C5CFD6"/>
<rect x="329.82" y="325.799" width="6.55531" height="74.075" rx="1.31106" fill="#C5CFD6"/>
<rect x="363.252" y="325.799" width="6.55531" height="74.075" rx="1.31106" fill="#C5CFD6"/>
</g>
<defs>
<clipPath id="clip0_196_7">
<rect width="444.45" height="211.737" fill="white" transform="translate(-35.9673 159.95)"/>
</clipPath>
<clipPath id="clip1_196_7">
<rect width="64.8976" height="137.662" fill="white" transform="translate(-38.5894)"/>
</clipPath>
<clipPath id="clip2_196_7">
<rect width="48.5093" height="104.229" fill="white" transform="translate(20.4092)"/>
</clipPath>
<clipPath id="clip3_196_7">
<rect width="113.407" height="270.079" fill="white" transform="translate(288.521 129.795)"/>
</clipPath>
</defs>
</svg>
