<svg width="25" height="25" viewBox="0 0 25 25" fill="none" xmlns="http://www.w3.org/2000/svg">
<g clip-path="url(#clip0_160_323)">
<path d="M12.4019 15.4254C14.0587 15.4254 15.4019 14.0822 15.4019 12.4254C15.4019 10.7685 14.0587 9.42535 12.4019 9.42535C10.745 9.42535 9.40186 10.7685 9.40186 12.4254C9.40186 14.0822 10.745 15.4254 12.4019 15.4254Z" stroke="white" stroke-opacity="0.8" stroke-width="2" stroke-linecap="round" stroke-linejoin="round"/>
<path d="M19.8019 15.4254C19.6687 15.727 19.629 16.0615 19.6879 16.3859C19.7467 16.7103 19.9013 17.0097 20.1319 17.2454L20.1919 17.3054C20.3778 17.4911 20.5253 17.7117 20.626 17.9545C20.7266 18.1973 20.7784 18.4575 20.7784 18.7204C20.7784 18.9832 20.7266 19.2434 20.626 19.4862C20.5253 19.729 20.3778 19.9496 20.1919 20.1354C20.0061 20.3213 19.7855 20.4688 19.5427 20.5695C19.2999 20.6701 19.0397 20.7219 18.7769 20.7219C18.514 20.7219 18.2538 20.6701 18.011 20.5695C17.7682 20.4688 17.5476 20.3213 17.3619 20.1354L17.3019 20.0754C17.0662 19.8448 16.7668 19.6902 16.4424 19.6313C16.118 19.5725 15.7835 19.6122 15.4819 19.7454C15.1861 19.8721 14.9338 20.0826 14.7562 20.3509C14.5785 20.6192 14.4831 20.9336 14.4819 21.2554V21.4254C14.4819 21.9558 14.2711 22.4645 13.8961 22.8396C13.521 23.2146 13.0123 23.4254 12.4819 23.4254C11.9514 23.4254 11.4427 23.2146 11.0676 22.8396C10.6926 22.4645 10.4819 21.9558 10.4819 21.4254V21.3354C10.4741 21.0044 10.367 20.6833 10.1744 20.4141C9.98176 20.1448 9.71259 19.9396 9.40186 19.8254C9.10024 19.6922 8.76566 19.6525 8.44127 19.7113C8.11687 19.7702 7.81753 19.9248 7.58186 20.1554L7.52186 20.2154C7.33611 20.4013 7.11553 20.5488 6.87274 20.6495C6.62994 20.7501 6.36969 20.8019 6.10686 20.8019C5.84402 20.8019 5.58377 20.7501 5.34097 20.6495C5.09818 20.5488 4.8776 20.4013 4.69186 20.2154C4.5059 20.0296 4.35838 19.809 4.25774 19.5662C4.15709 19.3234 4.10528 19.0632 4.10528 18.8004C4.10528 18.5375 4.15709 18.2773 4.25774 18.0345C4.35838 17.7917 4.5059 17.5711 4.69186 17.3854L4.75186 17.3254C4.98239 17.0897 5.13704 16.7903 5.19586 16.4659C5.25468 16.1415 5.21497 15.807 5.08186 15.5054C4.95509 15.2096 4.74461 14.9573 4.47632 14.7797C4.20803 14.602 3.89364 14.5066 3.57186 14.5054H3.40186C2.87142 14.5054 2.36271 14.2946 1.98764 13.9196C1.61257 13.5445 1.40186 13.0358 1.40186 12.5054C1.40186 11.9749 1.61257 11.4662 1.98764 11.0911C2.36271 10.7161 2.87142 10.5054 3.40186 10.5054H3.49186C3.82285 10.4976 4.14386 10.3905 4.41315 10.1979C4.68245 10.0053 4.88757 9.73609 5.00186 9.42535C5.13497 9.12374 5.17468 8.78916 5.11586 8.46477C5.05704 8.14037 4.90239 7.84103 4.67186 7.60535L4.61186 7.54535C4.4259 7.35961 4.27838 7.13903 4.17774 6.89623C4.07709 6.65344 4.02528 6.39318 4.02528 6.13035C4.02528 5.86752 4.07709 5.60727 4.17774 5.36447C4.27838 5.12168 4.4259 4.9011 4.61186 4.71535C4.7976 4.5294 5.01818 4.38188 5.26097 4.28123C5.50377 4.18059 5.76402 4.12878 6.02686 4.12878C6.28969 4.12878 6.54994 4.18059 6.79274 4.28123C7.03553 4.38188 7.25611 4.5294 7.44186 4.71535L7.50186 4.77535C7.73753 5.00589 8.03687 5.16054 8.36127 5.21936C8.68566 5.27818 9.02024 5.23847 9.32186 5.10535H9.40186C9.69762 4.97859 9.94987 4.76811 10.1275 4.49982C10.3052 4.23153 10.4006 3.91714 10.4019 3.59535V3.42535C10.4019 2.89492 10.6126 2.38621 10.9876 2.01114C11.3627 1.63607 11.8714 1.42535 12.4019 1.42535C12.9323 1.42535 13.441 1.63607 13.8161 2.01114C14.1911 2.38621 14.4019 2.89492 14.4019 3.42535V3.51535C14.4031 3.83714 14.4985 4.15153 14.6762 4.41982C14.8538 4.68811 15.1061 4.89859 15.4019 5.02535C15.7035 5.15847 16.038 5.19818 16.3624 5.13936C16.6868 5.08054 16.9862 4.92589 17.2219 4.69535L17.2819 4.63535C17.4676 4.4494 17.6882 4.30188 17.931 4.20123C18.1738 4.10059 18.434 4.04878 18.6969 4.04878C18.9597 4.04878 19.2199 4.10059 19.4627 4.20123C19.7055 4.30188 19.9261 4.4494 20.1119 4.63535C20.2978 4.8211 20.4453 5.04168 20.546 5.28447C20.6466 5.52727 20.6984 5.78752 20.6984 6.05035C20.6984 6.31318 20.6466 6.57344 20.546 6.81623C20.4453 7.05903 20.2978 7.27961 20.1119 7.46535L20.0519 7.52535C19.8213 7.76103 19.6667 8.06037 19.6079 8.38477C19.549 8.70916 19.5887 9.04374 19.7219 9.34535V9.42535C19.8486 9.72112 20.0591 9.97337 20.3274 10.151C20.5957 10.3287 20.9101 10.4241 21.2319 10.4254H21.4019C21.9323 10.4254 22.441 10.6361 22.8161 11.0111C23.1911 11.3862 23.4019 11.8949 23.4019 12.4254C23.4019 12.9558 23.1911 13.4645 22.8161 13.8396C22.441 14.2146 21.9323 14.4254 21.4019 14.4254H21.3119C20.9901 14.4266 20.6757 14.522 20.4074 14.6997C20.1391 14.8773 19.9286 15.1296 19.8019 15.4254V15.4254Z" stroke="white" stroke-opacity="0.8" stroke-width="2" stroke-linecap="round" stroke-linejoin="round"/>
</g>
<defs>
<clipPath id="clip0_160_323">
<rect width="24" height="24" fill="white" transform="translate(0.401855 0.425354)"/>
</clipPath>
</defs>
</svg>
