<svg width="25" height="25" viewBox="0 0 25 25" fill="none" xmlns="http://www.w3.org/2000/svg">
<path d="M14.7817 2.93896H6.78174C6.25131 2.93896 5.7426 3.14968 5.36752 3.52475C4.99245 3.89982 4.78174 4.40853 4.78174 4.93896V20.939C4.78174 21.4694 4.99245 21.9781 5.36752 22.3532C5.7426 22.7283 6.25131 22.939 6.78174 22.939H18.7817C19.3122 22.939 19.8209 22.7283 20.196 22.3532C20.571 21.9781 20.7817 21.4694 20.7817 20.939V8.93896L14.7817 2.93896Z" stroke="#5486E9" stroke-width="2" stroke-linecap="round" stroke-linejoin="round"/>
<path d="M14.7817 2.93896V8.93896H20.7817" stroke="#5486E9" stroke-width="2" stroke-linecap="round" stroke-linejoin="round"/>
<path d="M16.7817 13.939H8.78174" stroke="#5486E9" stroke-width="2" stroke-linecap="round" stroke-linejoin="round"/>
<path d="M16.7817 17.939H8.78174" stroke="#5486E9" stroke-width="2" stroke-linecap="round" stroke-linejoin="round"/>
<path d="M10.7817 9.93896H9.78174H8.78174" stroke="#5486E9" stroke-width="2" stroke-linecap="round" stroke-linejoin="round"/>
</svg>
