<svg width="19" height="14" viewBox="0 0 19 14" fill="none" xmlns="http://www.w3.org/2000/svg">
<path d="M18.6533 2.75543C18.435 2.56905 18.1269 2.52977 17.8687 2.65547L13.9178 4.57884L10.2107 0.304606C10.0736 0.14649 9.87458 0.0556641 9.66528 0.0556641C9.45597 0.0556641 9.25699 0.14649 9.11985 0.304606L5.41273 4.57881L1.46187 2.65543C1.20365 2.52977 0.895583 2.56901 0.677182 2.75539C0.45878 2.94177 0.371564 3.23988 0.455062 3.5146L3.19862 12.5394C3.29107 12.8436 3.57152 13.0514 3.88938 13.0514H15.4412C15.759 13.0514 16.0395 12.8436 16.1319 12.5395L18.8755 3.51463C18.959 3.23992 18.8718 2.94181 18.6533 2.75543ZM14.906 11.6075H4.42448L2.31804 4.67826L5.27899 6.11975C5.57298 6.26284 5.92625 6.19057 6.14043 5.94365L9.66528 1.87959L13.1902 5.94365C13.4043 6.19061 13.7577 6.26281 14.0516 6.11975L17.0125 4.67826L14.906 11.6075Z" fill="#F26950" fill-opacity="0.8"/>
</svg>
