<svg width="19" height="14" viewBox="0 0 19 14" fill="none" xmlns="http://www.w3.org/2000/svg">
<path d="M18.3853 3.54889C18.1669 3.3625 17.8588 3.32323 17.6006 3.44893L13.6498 5.3723L9.94264 1.09806C9.80553 0.939947 9.60651 0.849121 9.39721 0.849121C9.18791 0.849121 8.98893 0.939947 8.85179 1.09806L5.14467 5.37226L1.19381 3.44889C0.935588 3.32323 0.627516 3.36247 0.409115 3.54885C0.190714 3.73523 0.103498 4.03334 0.186996 4.30806L2.93055 13.3329C3.023 13.637 3.30346 13.8449 3.62131 13.8449H15.1731C15.4909 13.8449 15.7714 13.637 15.8638 13.3329L18.6074 4.30809C18.6909 4.03337 18.6037 3.73527 18.3853 3.54889ZM14.6379 12.4009H4.15641L2.04998 5.47172L5.01092 6.9132C5.30491 7.0563 5.65818 6.98403 5.87236 6.73711L9.39721 2.67304L12.9221 6.73711C13.1362 6.98407 13.4896 7.05626 13.7835 6.9132L16.7444 5.47172L14.6379 12.4009Z" fill="#F26950" fill-opacity="0.8"/>
</svg>
